<?xml version="1.0" encoding="UTF-8" standalone="no"?><svg xmlns="http://www.w3.org/2000/svg" xmlns:xlink="http://www.w3.org/1999/xlink" clip-rule="evenodd" stroke-miterlimit="4.00" viewBox="0 0 1024 768"><desc>SVG generated by Keynote</desc><defs></defs><g transform="matrix(1.00, 0.00, -0.00, -1.00, 0.0, 768.0)"><path d="M 0.0 768.0 L 1024.0 768.0 L 1024.0 0.0 L 0.0 0.0 Z M 0.0 768.0 " fill="#212121"></path><path d="M 0.0 0.0 L 960.0 0.0 " fill="none" stroke="#A6AAA9" stroke-width="2.00" transform="matrix(1.00, 0.00, 0.00, -1.00, 32.0, 689.8)"></path><text xml:space="preserve" font-family="DINCondensed-Bold" font-weight="bold" font-size="48.0" fill="#34A4DA" transform="matrix(1.00, 0.00, -0.00, -1.00, 36.0, 608.0)">P</text><text xml:space="preserve" font-family="DINCondensed-Bold" font-weight="bold" font-size="48.0" fill="#34A4DA" transform="matrix(1.00, 0.00, -0.00, -1.00, 53.8, 608.0)">A</text><text xml:space="preserve" font-family="DINCondensed-Bold" font-weight="bold" font-size="48.0" fill="#34A4DA" transform="matrix(1.00, 0.00, -0.00, -1.00, 73.3, 608.0)">C</text><text xml:space="preserve" font-family="DINCondensed-Bold" font-weight="bold" font-size="48.0" fill="#34A4DA" transform="matrix(1.00, 0.00, -0.00, -1.00, 92.8, 608.0)">K</text><text xml:space="preserve" font-family="DINCondensed-Bold" font-weight="bold" font-size="48.0" fill="#34A4DA" transform="matrix(1.00, 0.00, -0.00, -1.00, 113.3, 608.0)">A</text><text xml:space="preserve" font-family="DINCondensed-Bold" font-weight="bold" font-size="48.0" fill="#34A4DA" transform="matrix(1.00, 0.00, -0.00, -1.00, 132.8, 608.0)">G</text><text xml:space="preserve" font-family="DINCondensed-Bold" font-weight="bold" font-size="48.0" fill="#34A4DA" transform="matrix(1.00, 0.00, -0.00, -1.00, 153.3, 608.0)">E</text><text xml:space="preserve" font-family="DINCondensed-Bold" font-weight="bold" font-size="48.0" fill="#34A4DA" transform="matrix(1.00, 0.00, -0.00, -1.00, 171.0, 608.0)">S</text><text xml:space="preserve" font-family="LucidaGrande" font-size="29.4" fill="#34A4DA" transform="matrix(1.00, 0.00, -0.00, -1.00, 36.0, 518.2)">▸</text><text xml:space="preserve" font-family="AvenirNext-DemiBold" font-weight="bold" font-size="28.0" fill="#34A4DA" transform="matrix(1.00, 0.00, -0.00, -1.00, 71.0, 520.0)">N</text><text xml:space="preserve" font-family="AvenirNext-DemiBold" font-weight="bold" font-size="28.0" fill="#34A4DA" transform="matrix(1.00, 0.00, -0.00, -1.00, 92.8, 520.0)">u</text><text xml:space="preserve" font-family="AvenirNext-DemiBold" font-weight="bold" font-size="28.0" fill="#34A4DA" transform="matrix(1.00, 0.00, -0.00, -1.00, 109.1, 520.0)">m</text><text xml:space="preserve" font-family="AvenirNext-DemiBold" font-weight="bold" font-size="28.0" fill="#34A4DA" transform="matrix(1.00, 0.00, -0.00, -1.00, 134.1, 520.0)">p</text><text xml:space="preserve" font-family="AvenirNext-DemiBold" font-weight="bold" font-size="28.0" fill="#34A4DA" transform="matrix(1.00, 0.00, -0.00, -1.00, 151.8, 520.0)">y</text><text xml:space="preserve" font-family="AvenirNext-Medium" font-size="28.0" fill="#A6AAA8" transform="matrix(1.00, 0.00, -0.00, -1.00, 166.1, 520.0)"> </text><text xml:space="preserve" font-family="AvenirNext-Medium" font-size="28.0" fill="#A6AAA8" transform="matrix(1.00, 0.00, -0.00, -1.00, 173.1, 520.0)">-</text><text xml:space="preserve" font-family="AvenirNext-Medium" font-size="28.0" fill="#A6AAA8" transform="matrix(1.00, 0.00, -0.00, -1.00, 182.1, 520.0)"> </text><text xml:space="preserve" font-family="AvenirNext-Medium" font-size="28.0" fill="#A6AAA8" transform="matrix(1.00, 0.00, -0.00, -1.00, 189.1, 520.0)">P</text><text xml:space="preserve" font-family="AvenirNext-Medium" font-size="28.0" fill="#A6AAA8" transform="matrix(1.00, 0.00, -0.00, -1.00, 204.5, 520.0)">r</text><text xml:space="preserve" font-family="AvenirNext-Medium" font-size="28.0" fill="#A6AAA8" transform="matrix(1.00, 0.00, -0.00, -1.00, 214.1, 520.0)">o</text><text xml:space="preserve" font-family="AvenirNext-Medium" font-size="28.0" fill="#A6AAA8" transform="matrix(1.00, 0.00, -0.00, -1.00, 231.2, 520.0)">v</text><text xml:space="preserve" font-family="AvenirNext-Medium" font-size="28.0" fill="#A6AAA8" transform="matrix(1.00, 0.00, -0.00, -1.00, 245.3, 520.0)">i</text><text xml:space="preserve" font-family="AvenirNext-Medium" font-size="28.0" fill="#A6AAA8" transform="matrix(1.00, 0.00, -0.00, -1.00, 252.6, 520.0)">d</text><text xml:space="preserve" font-family="AvenirNext-Medium" font-size="28.0" fill="#A6AAA8" transform="matrix(1.00, 0.00, -0.00, -1.00, 270.3, 520.0)">e</text><text xml:space="preserve" font-family="AvenirNext-Medium" font-size="28.0" fill="#A6AAA8" transform="matrix(1.00, 0.00, -0.00, -1.00, 286.4, 520.0)">s</text><text xml:space="preserve" font-family="AvenirNext-Medium" font-size="28.0" fill="#A6AAA8" transform="matrix(1.00, 0.00, -0.00, -1.00, 298.8, 520.0)"> </text><text xml:space="preserve" font-family="AvenirNext-Medium" font-size="28.0" fill="#A6AAA8" transform="matrix(1.00, 0.00, -0.00, -1.00, 305.8, 520.0)">o</text><text xml:space="preserve" font-family="AvenirNext-Medium" font-size="28.0" fill="#A6AAA8" transform="matrix(1.00, 0.00, -0.00, -1.00, 322.9, 520.0)">p</text><text xml:space="preserve" font-family="AvenirNext-Medium" font-size="28.0" fill="#A6AAA8" transform="matrix(1.00, 0.00, -0.00, -1.00, 340.6, 520.0)">t</text><text xml:space="preserve" font-family="AvenirNext-Medium" font-size="28.0" fill="#A6AAA8" transform="matrix(1.00, 0.00, -0.00, -1.00, 349.9, 520.0)">i</text><text xml:space="preserve" font-family="AvenirNext-Medium" font-size="28.0" fill="#A6AAA8" transform="matrix(1.00, 0.00, -0.00, -1.00, 357.1, 520.0)">m</text><text xml:space="preserve" font-family="AvenirNext-Medium" font-size="28.0" fill="#A6AAA8" transform="matrix(1.00, 0.00, -0.00, -1.00, 381.9, 520.0)">i</text><text xml:space="preserve" font-family="AvenirNext-Medium" font-size="28.0" fill="#A6AAA8" transform="matrix(1.00, 0.00, -0.00, -1.00, 389.2, 520.0)">z</text><text xml:space="preserve" font-family="AvenirNext-Medium" font-size="28.0" fill="#A6AAA8" transform="matrix(1.00, 0.00, -0.00, -1.00, 402.1, 520.0)">e</text><text xml:space="preserve" font-family="AvenirNext-Medium" font-size="28.0" fill="#A6AAA8" transform="matrix(1.00, 0.00, -0.00, -1.00, 418.2, 520.0)">d</text><text xml:space="preserve" font-family="AvenirNext-Medium" font-size="28.0" fill="#A6AAA8" transform="matrix(1.00, 0.00, -0.00, -1.00, 436.0, 520.0)"> </text><text xml:space="preserve" font-family="AvenirNext-Medium" font-size="28.0" fill="#A6AAA8" transform="matrix(1.00, 0.00, -0.00, -1.00, 71.0, 482.0)">m</text><text xml:space="preserve" font-family="AvenirNext-Medium" font-size="28.0" fill="#A6AAA8" transform="matrix(1.00, 0.00, -0.00, -1.00, 95.8, 482.0)">a</text><text xml:space="preserve" font-family="AvenirNext-Medium" font-size="28.0" fill="#A6AAA8" transform="matrix(1.00, 0.00, -0.00, -1.00, 110.7, 482.0)">t</text><text xml:space="preserve" font-family="AvenirNext-Medium" font-size="28.0" fill="#A6AAA8" transform="matrix(1.00, 0.00, -0.00, -1.00, 119.9, 482.0)">h</text><text xml:space="preserve" font-family="AvenirNext-Medium" font-size="28.0" fill="#A6AAA8" transform="matrix(1.00, 0.00, -0.00, -1.00, 136.3, 482.0)">e</text><text xml:space="preserve" font-family="AvenirNext-Medium" font-size="28.0" fill="#A6AAA8" transform="matrix(1.00, 0.00, -0.00, -1.00, 152.3, 482.0)">m</text><text xml:space="preserve" font-family="AvenirNext-Medium" font-size="28.0" fill="#A6AAA8" transform="matrix(1.00, 0.00, -0.00, -1.00, 177.2, 482.0)">a</text><text xml:space="preserve" font-family="AvenirNext-Medium" font-size="28.0" fill="#A6AAA8" transform="matrix(1.00, 0.00, -0.00, -1.00, 192.1, 482.0)">t</text><text xml:space="preserve" font-family="AvenirNext-Medium" font-size="28.0" fill="#A6AAA8" transform="matrix(1.00, 0.00, -0.00, -1.00, 201.3, 482.0)">i</text><text xml:space="preserve" font-family="AvenirNext-Medium" font-size="28.0" fill="#A6AAA8" transform="matrix(1.00, 0.00, -0.00, -1.00, 208.5, 482.0)">c</text><text xml:space="preserve" font-family="AvenirNext-Medium" font-size="28.0" fill="#A6AAA8" transform="matrix(1.00, 0.00, -0.00, -1.00, 222.4, 482.0)">a</text><text xml:space="preserve" font-family="AvenirNext-Medium" font-size="28.0" fill="#A6AAA8" transform="matrix(1.00, 0.00, -0.00, -1.00, 237.5, 482.0)">l</text><text xml:space="preserve" font-family="AvenirNext-Medium" font-size="28.0" fill="#A6AAA8" transform="matrix(1.00, 0.00, -0.00, -1.00, 244.8, 482.0)"> </text><text xml:space="preserve" font-family="AvenirNext-Medium" font-size="28.0" fill="#A6AAA8" transform="matrix(1.00, 0.00, -0.00, -1.00, 251.8, 482.0)">o</text><text xml:space="preserve" font-family="AvenirNext-Medium" font-size="28.0" fill="#A6AAA8" transform="matrix(1.00, 0.00, -0.00, -1.00, 268.9, 482.0)">p</text><text xml:space="preserve" font-family="AvenirNext-Medium" font-size="28.0" fill="#A6AAA8" transform="matrix(1.00, 0.00, -0.00, -1.00, 286.7, 482.0)">e</text><text xml:space="preserve" font-family="AvenirNext-Medium" font-size="28.0" fill="#A6AAA8" transform="matrix(1.00, 0.00, -0.00, -1.00, 302.7, 482.0)">r</text><text xml:space="preserve" font-family="AvenirNext-Medium" font-size="28.0" fill="#A6AAA8" transform="matrix(1.00, 0.00, -0.00, -1.00, 312.5, 482.0)">a</text><text xml:space="preserve" font-family="AvenirNext-Medium" font-size="28.0" fill="#A6AAA8" transform="matrix(1.00, 0.00, -0.00, -1.00, 327.4, 482.0)">t</text><text xml:space="preserve" font-family="AvenirNext-Medium" font-size="28.0" fill="#A6AAA8" transform="matrix(1.00, 0.00, -0.00, -1.00, 336.6, 482.0)">i</text><text xml:space="preserve" font-family="AvenirNext-Medium" font-size="28.0" fill="#A6AAA8" transform="matrix(1.00, 0.00, -0.00, -1.00, 343.8, 482.0)">o</text><text xml:space="preserve" font-family="AvenirNext-Medium" font-size="28.0" fill="#A6AAA8" transform="matrix(1.00, 0.00, -0.00, -1.00, 360.9, 482.0)">n</text><text xml:space="preserve" font-family="AvenirNext-Medium" font-size="28.0" fill="#A6AAA8" transform="matrix(1.00, 0.00, -0.00, -1.00, 377.2, 482.0)">s</text><text xml:space="preserve" font-family="AvenirNext-Medium" font-size="28.0" fill="#A6AAA8" transform="matrix(1.00, 0.00, -0.00, -1.00, 389.6, 482.0)"> </text><text xml:space="preserve" font-family="LucidaGrande" font-size="29.4" fill="#34A4DA" transform="matrix(1.00, 0.00, -0.00, -1.00, 36.0, 414.2)">▸</text><text xml:space="preserve" font-family="AvenirNext-DemiBold" font-weight="bold" font-size="28.0" fill="#34A4DA" transform="matrix(1.00, 0.00, -0.00, -1.00, 71.0, 416.0)">M</text><text xml:space="preserve" font-family="AvenirNext-DemiBold" font-weight="bold" font-size="28.0" fill="#34A4DA" transform="matrix(1.00, 0.00, -0.00, -1.00, 96.8, 416.0)">a</text><text xml:space="preserve" font-family="AvenirNext-DemiBold" font-weight="bold" font-size="28.0" fill="#34A4DA" transform="matrix(1.00, 0.00, -0.00, -1.00, 111.9, 416.0)">t</text><text xml:space="preserve" font-family="AvenirNext-DemiBold" font-weight="bold" font-size="28.0" fill="#34A4DA" transform="matrix(1.00, 0.00, -0.00, -1.00, 121.4, 416.0)">p</text><text xml:space="preserve" font-family="AvenirNext-DemiBold" font-weight="bold" font-size="28.0" fill="#34A4DA" transform="matrix(1.00, 0.00, -0.00, -1.00, 139.1, 416.0)">l</text><text xml:space="preserve" font-family="AvenirNext-DemiBold" font-weight="bold" font-size="28.0" fill="#34A4DA" transform="matrix(1.00, 0.00, -0.00, -1.00, 146.6, 416.0)">o</text><text xml:space="preserve" font-family="AvenirNext-DemiBold" font-weight="bold" font-size="28.0" fill="#34A4DA" transform="matrix(1.00, 0.00, -0.00, -1.00, 163.7, 416.0)">t</text><text xml:space="preserve" font-family="AvenirNext-DemiBold" font-weight="bold" font-size="28.0" fill="#34A4DA" transform="matrix(1.00, 0.00, -0.00, -1.00, 173.2, 416.0)">l</text><text xml:space="preserve" font-family="AvenirNext-DemiBold" font-weight="bold" font-size="28.0" fill="#34A4DA" transform="matrix(1.00, 0.00, -0.00, -1.00, 180.7, 416.0)">i</text><text xml:space="preserve" font-family="AvenirNext-DemiBold" font-weight="bold" font-size="28.0" fill="#34A4DA" transform="matrix(1.00, 0.00, -0.00, -1.00, 188.2, 416.0)">b</text><text xml:space="preserve" font-family="AvenirNext-Medium" font-size="28.0" fill="#A6AAA8" transform="matrix(1.00, 0.00, -0.00, -1.00, 206.0, 416.0)"> </text><text xml:space="preserve" font-family="AvenirNext-Medium" font-size="28.0" fill="#A6AAA8" transform="matrix(1.00, 0.00, -0.00, -1.00, 213.0, 416.0)">-</text><text xml:space="preserve" font-family="AvenirNext-Medium" font-size="28.0" fill="#A6AAA8" transform="matrix(1.00, 0.00, -0.00, -1.00, 222.0, 416.0)"> </text><text xml:space="preserve" font-family="AvenirNext-Medium" font-size="28.0" fill="#A6AAA8" transform="matrix(1.00, 0.00, -0.00, -1.00, 229.0, 416.0)">C</text><text xml:space="preserve" font-family="AvenirNext-Medium" font-size="28.0" fill="#A6AAA8" transform="matrix(1.00, 0.00, -0.00, -1.00, 248.8, 416.0)">u</text><text xml:space="preserve" font-family="AvenirNext-Medium" font-size="28.0" fill="#A6AAA8" transform="matrix(1.00, 0.00, -0.00, -1.00, 265.1, 416.0)">s</text><text xml:space="preserve" font-family="AvenirNext-Medium" font-size="28.0" fill="#A6AAA8" transform="matrix(1.00, 0.00, -0.00, -1.00, 277.5, 416.0)">t</text><text xml:space="preserve" font-family="AvenirNext-Medium" font-size="28.0" fill="#A6AAA8" transform="matrix(1.00, 0.00, -0.00, -1.00, 286.7, 416.0)">o</text><text xml:space="preserve" font-family="AvenirNext-Medium" font-size="28.0" fill="#A6AAA8" transform="matrix(1.00, 0.00, -0.00, -1.00, 303.8, 416.0)">m</text><text xml:space="preserve" font-family="AvenirNext-Medium" font-size="28.0" fill="#A6AAA8" transform="matrix(1.00, 0.00, -0.00, -1.00, 328.7, 416.0)">i</text><text xml:space="preserve" font-family="AvenirNext-Medium" font-size="28.0" fill="#A6AAA8" transform="matrix(1.00, 0.00, -0.00, -1.00, 335.9, 416.0)">z</text><text xml:space="preserve" font-family="AvenirNext-Medium" font-size="28.0" fill="#A6AAA8" transform="matrix(1.00, 0.00, -0.00, -1.00, 348.8, 416.0)">a</text><text xml:space="preserve" font-family="AvenirNext-Medium" font-size="28.0" fill="#A6AAA8" transform="matrix(1.00, 0.00, -0.00, -1.00, 364.0, 416.0)">b</text><text xml:space="preserve" font-family="AvenirNext-Medium" font-size="28.0" fill="#A6AAA8" transform="matrix(1.00, 0.00, -0.00, -1.00, 381.8, 416.0)">l</text><text xml:space="preserve" font-family="AvenirNext-Medium" font-size="28.0" fill="#A6AAA8" transform="matrix(1.00, 0.00, -0.00, -1.00, 389.1, 416.0)">e</text><text xml:space="preserve" font-family="AvenirNext-Medium" font-size="28.0" fill="#A6AAA8" transform="matrix(1.00, 0.00, -0.00, -1.00, 405.2, 416.0)"> </text><text xml:space="preserve" font-family="AvenirNext-Medium" font-size="28.0" fill="#A6AAA8" transform="matrix(1.00, 0.00, -0.00, -1.00, 71.0, 378.0)">v</text><text xml:space="preserve" font-family="AvenirNext-Medium" font-size="28.0" fill="#A6AAA8" transform="matrix(1.00, 0.00, -0.00, -1.00, 85.1, 378.0)">i</text><text xml:space="preserve" font-family="AvenirNext-Medium" font-size="28.0" fill="#A6AAA8" transform="matrix(1.00, 0.00, -0.00, -1.00, 92.4, 378.0)">s</text><text xml:space="preserve" font-family="AvenirNext-Medium" font-size="28.0" fill="#A6AAA8" transform="matrix(1.00, 0.00, -0.00, -1.00, 104.8, 378.0)">u</text><text xml:space="preserve" font-family="AvenirNext-Medium" font-size="28.0" fill="#A6AAA8" transform="matrix(1.00, 0.00, -0.00, -1.00, 121.1, 378.0)">a</text><text xml:space="preserve" font-family="AvenirNext-Medium" font-size="28.0" fill="#A6AAA8" transform="matrix(1.00, 0.00, -0.00, -1.00, 136.3, 378.0)">l</text><text xml:space="preserve" font-family="AvenirNext-Medium" font-size="28.0" fill="#A6AAA8" transform="matrix(1.00, 0.00, -0.00, -1.00, 143.5, 378.0)">i</text><text xml:space="preserve" font-family="AvenirNext-Medium" font-size="28.0" fill="#A6AAA8" transform="matrix(1.00, 0.00, -0.00, -1.00, 150.8, 378.0)">z</text><text xml:space="preserve" font-family="AvenirNext-Medium" font-size="28.0" fill="#A6AAA8" transform="matrix(1.00, 0.00, -0.00, -1.00, 163.7, 378.0)">a</text><text xml:space="preserve" font-family="AvenirNext-Medium" font-size="28.0" fill="#A6AAA8" transform="matrix(1.00, 0.00, -0.00, -1.00, 178.6, 378.0)">t</text><text xml:space="preserve" font-family="AvenirNext-Medium" font-size="28.0" fill="#A6AAA8" transform="matrix(1.00, 0.00, -0.00, -1.00, 187.8, 378.0)">i</text><text xml:space="preserve" font-family="AvenirNext-Medium" font-size="28.0" fill="#A6AAA8" transform="matrix(1.00, 0.00, -0.00, -1.00, 195.1, 378.0)">o</text><text xml:space="preserve" font-family="AvenirNext-Medium" font-size="28.0" fill="#A6AAA8" transform="matrix(1.00, 0.00, -0.00, -1.00, 212.2, 378.0)">n</text><text xml:space="preserve" font-family="AvenirNext-Medium" font-size="28.0" fill="#A6AAA8" transform="matrix(1.00, 0.00, -0.00, -1.00, 228.5, 378.0)">s</text><text xml:space="preserve" font-family="AvenirNext-Medium" font-size="28.0" fill="#A6AAA8" transform="matrix(1.00, 0.00, -0.00, -1.00, 240.9, 378.0)"> </text><text xml:space="preserve" font-family="LucidaGrande" font-size="29.4" fill="#34A4DA" transform="matrix(1.00, 0.00, -0.00, -1.00, 36.0, 310.2)">▸</text><text xml:space="preserve" font-family="AvenirNext-DemiBold" font-weight="bold" font-size="28.0" fill="#34A4DA" transform="matrix(1.00, 0.00, -0.00, -1.00, 71.0, 312.0)">P</text><text xml:space="preserve" font-family="AvenirNext-DemiBold" font-weight="bold" font-size="28.0" fill="#34A4DA" transform="matrix(1.00, 0.00, -0.00, -1.00, 86.9, 312.0)">y</text><text xml:space="preserve" font-family="AvenirNext-DemiBold" font-weight="bold" font-size="28.0" fill="#34A4DA" transform="matrix(1.00, 0.00, -0.00, -1.00, 101.3, 312.0)">g</text><text xml:space="preserve" font-family="AvenirNext-DemiBold" font-weight="bold" font-size="28.0" fill="#34A4DA" transform="matrix(1.00, 0.00, -0.00, -1.00, 119.0, 312.0)">a</text><text xml:space="preserve" font-family="AvenirNext-DemiBold" font-weight="bold" font-size="28.0" fill="#34A4DA" transform="matrix(1.00, 0.00, -0.00, -1.00, 134.4, 312.0)">l</text><text xml:space="preserve" font-family="AvenirNext-Medium" font-size="28.0" fill="#A6AAA8" transform="matrix(1.00, 0.00, -0.00, -1.00, 141.9, 312.0)"> </text><text xml:space="preserve" font-family="AvenirNext-Medium" font-size="28.0" fill="#A6AAA8" transform="matrix(1.00, 0.00, -0.00, -1.00, 148.9, 312.0)">-</text><text xml:space="preserve" font-family="AvenirNext-Medium" font-size="28.0" fill="#A6AAA8" transform="matrix(1.00, 0.00, -0.00, -1.00, 157.8, 312.0)"> </text><text xml:space="preserve" font-family="AvenirNext-Medium" font-size="28.0" fill="#A6AAA8" transform="matrix(1.00, 0.00, -0.00, -1.00, 164.8, 312.0)">B</text><text xml:space="preserve" font-family="AvenirNext-Medium" font-size="28.0" fill="#A6AAA8" transform="matrix(1.00, 0.00, -0.00, -1.00, 182.8, 312.0)">e</text><text xml:space="preserve" font-family="AvenirNext-Medium" font-size="28.0" fill="#A6AAA8" transform="matrix(1.00, 0.00, -0.00, -1.00, 198.8, 312.0)">g</text><text xml:space="preserve" font-family="AvenirNext-Medium" font-size="28.0" fill="#A6AAA8" transform="matrix(1.00, 0.00, -0.00, -1.00, 216.5, 312.0)">i</text><text xml:space="preserve" font-family="AvenirNext-Medium" font-size="28.0" fill="#A6AAA8" transform="matrix(1.00, 0.00, -0.00, -1.00, 223.8, 312.0)">n</text><text xml:space="preserve" font-family="AvenirNext-Medium" font-size="28.0" fill="#A6AAA8" transform="matrix(1.00, 0.00, -0.00, -1.00, 240.1, 312.0)">n</text><text xml:space="preserve" font-family="AvenirNext-Medium" font-size="28.0" fill="#A6AAA8" transform="matrix(1.00, 0.00, -0.00, -1.00, 256.4, 312.0)">e</text><text xml:space="preserve" font-family="AvenirNext-Medium" font-size="28.0" fill="#A6AAA8" transform="matrix(1.00, 0.00, -0.00, -1.00, 272.4, 312.0)">r</text><text xml:space="preserve" font-family="AvenirNext-Medium" font-size="28.0" fill="#A6AAA8" transform="matrix(1.00, 0.00, -0.00, -1.00, 282.6, 312.0)"> </text><text xml:space="preserve" font-family="AvenirNext-Medium" font-size="28.0" fill="#A6AAA8" transform="matrix(1.00, 0.00, -0.00, -1.00, 289.6, 312.0)">f</text><text xml:space="preserve" font-family="AvenirNext-Medium" font-size="28.0" fill="#A6AAA8" transform="matrix(1.00, 0.00, -0.00, -1.00, 298.2, 312.0)">r</text><text xml:space="preserve" font-family="AvenirNext-Medium" font-size="28.0" fill="#A6AAA8" transform="matrix(1.00, 0.00, -0.00, -1.00, 308.4, 312.0)">i</text><text xml:space="preserve" font-family="AvenirNext-Medium" font-size="28.0" fill="#A6AAA8" transform="matrix(1.00, 0.00, -0.00, -1.00, 315.6, 312.0)">e</text><text xml:space="preserve" font-family="AvenirNext-Medium" font-size="28.0" fill="#A6AAA8" transform="matrix(1.00, 0.00, -0.00, -1.00, 331.7, 312.0)">n</text><text xml:space="preserve" font-family="AvenirNext-Medium" font-size="28.0" fill="#A6AAA8" transform="matrix(1.00, 0.00, -0.00, -1.00, 348.0, 312.0)">d</text><text xml:space="preserve" font-family="AvenirNext-Medium" font-size="28.0" fill="#A6AAA8" transform="matrix(1.00, 0.00, -0.00, -1.00, 365.8, 312.0)">l</text><text xml:space="preserve" font-family="AvenirNext-Medium" font-size="28.0" fill="#A6AAA8" transform="matrix(1.00, 0.00, -0.00, -1.00, 373.0, 312.0)">y</text><text xml:space="preserve" font-family="AvenirNext-Medium" font-size="28.0" fill="#A6AAA8" transform="matrix(1.00, 0.00, -0.00, -1.00, 387.1, 312.0)"> </text><text xml:space="preserve" font-family="AvenirNext-Medium" font-size="28.0" fill="#A6AAA8" transform="matrix(1.00, 0.00, -0.00, -1.00, 71.0, 274.0)">v</text><text xml:space="preserve" font-family="AvenirNext-Medium" font-size="28.0" fill="#A6AAA8" transform="matrix(1.00, 0.00, -0.00, -1.00, 85.1, 274.0)">i</text><text xml:space="preserve" font-family="AvenirNext-Medium" font-size="28.0" fill="#A6AAA8" transform="matrix(1.00, 0.00, -0.00, -1.00, 92.4, 274.0)">s</text><text xml:space="preserve" font-family="AvenirNext-Medium" font-size="28.0" fill="#A6AAA8" transform="matrix(1.00, 0.00, -0.00, -1.00, 104.8, 274.0)">u</text><text xml:space="preserve" font-family="AvenirNext-Medium" font-size="28.0" fill="#A6AAA8" transform="matrix(1.00, 0.00, -0.00, -1.00, 121.1, 274.0)">a</text><text xml:space="preserve" font-family="AvenirNext-Medium" font-size="28.0" fill="#A6AAA8" transform="matrix(1.00, 0.00, -0.00, -1.00, 136.3, 274.0)">l</text><text xml:space="preserve" font-family="AvenirNext-Medium" font-size="28.0" fill="#A6AAA8" transform="matrix(1.00, 0.00, -0.00, -1.00, 143.5, 274.0)">i</text><text xml:space="preserve" font-family="AvenirNext-Medium" font-size="28.0" fill="#A6AAA8" transform="matrix(1.00, 0.00, -0.00, -1.00, 150.8, 274.0)">z</text><text xml:space="preserve" font-family="AvenirNext-Medium" font-size="28.0" fill="#A6AAA8" transform="matrix(1.00, 0.00, -0.00, -1.00, 163.7, 274.0)">a</text><text xml:space="preserve" font-family="AvenirNext-Medium" font-size="28.0" fill="#A6AAA8" transform="matrix(1.00, 0.00, -0.00, -1.00, 178.6, 274.0)">t</text><text xml:space="preserve" font-family="AvenirNext-Medium" font-size="28.0" fill="#A6AAA8" transform="matrix(1.00, 0.00, -0.00, -1.00, 187.8, 274.0)">i</text><text xml:space="preserve" font-family="AvenirNext-Medium" font-size="28.0" fill="#A6AAA8" transform="matrix(1.00, 0.00, -0.00, -1.00, 195.1, 274.0)">o</text><text xml:space="preserve" font-family="AvenirNext-Medium" font-size="28.0" fill="#A6AAA8" transform="matrix(1.00, 0.00, -0.00, -1.00, 212.2, 274.0)">n</text><text xml:space="preserve" font-family="AvenirNext-Medium" font-size="28.0" fill="#A6AAA8" transform="matrix(1.00, 0.00, -0.00, -1.00, 228.5, 274.0)">s</text><text xml:space="preserve" font-family="AvenirNext-Medium" font-size="28.0" fill="#A6AAA8" transform="matrix(1.00, 0.00, -0.00, -1.00, 240.9, 274.0)"> </text><text xml:space="preserve" font-family="LucidaGrande" font-size="29.4" fill="#34A4DA" transform="matrix(1.00, 0.00, -0.00, -1.00, 36.0, 206.2)">▸</text><text xml:space="preserve" font-family="AvenirNext-DemiBold" font-weight="bold" font-size="28.0" fill="#34A4DA" transform="matrix(1.00, 0.00, -0.00, -1.00, 71.0, 208.0)">P</text><text xml:space="preserve" font-family="AvenirNext-DemiBold" font-weight="bold" font-size="28.0" fill="#34A4DA" transform="matrix(1.00, 0.00, -0.00, -1.00, 86.5, 208.0)">a</text><text xml:space="preserve" font-family="AvenirNext-DemiBold" font-weight="bold" font-size="28.0" fill="#34A4DA" transform="matrix(1.00, 0.00, -0.00, -1.00, 101.9, 208.0)">n</text><text xml:space="preserve" font-family="AvenirNext-DemiBold" font-weight="bold" font-size="28.0" fill="#34A4DA" transform="matrix(1.00, 0.00, -0.00, -1.00, 118.2, 208.0)">d</text><text xml:space="preserve" font-family="AvenirNext-DemiBold" font-weight="bold" font-size="28.0" fill="#34A4DA" transform="matrix(1.00, 0.00, -0.00, -1.00, 136.0, 208.0)">a</text><text xml:space="preserve" font-family="AvenirNext-DemiBold" font-weight="bold" font-size="28.0" fill="#34A4DA" transform="matrix(1.00, 0.00, -0.00, -1.00, 151.4, 208.0)">s</text><text xml:space="preserve" font-family="AvenirNext-Medium" font-size="28.0" fill="#A6AAA8" transform="matrix(1.00, 0.00, -0.00, -1.00, 163.8, 208.0)"> </text><text xml:space="preserve" font-family="AvenirNext-Medium" font-size="28.0" fill="#A6AAA8" transform="matrix(1.00, 0.00, -0.00, -1.00, 170.8, 208.0)">-</text><text xml:space="preserve" font-family="AvenirNext-Medium" font-size="28.0" fill="#A6AAA8" transform="matrix(1.00, 0.00, -0.00, -1.00, 179.8, 208.0)"> </text><text xml:space="preserve" font-family="AvenirNext-Medium" font-size="28.0" fill="#A6AAA8" transform="matrix(1.00, 0.00, -0.00, -1.00, 186.8, 208.0)">D</text><text xml:space="preserve" font-family="AvenirNext-Medium" font-size="28.0" fill="#A6AAA8" transform="matrix(1.00, 0.00, -0.00, -1.00, 208.1, 208.0)">a</text><text xml:space="preserve" font-family="AvenirNext-Medium" font-size="28.0" fill="#A6AAA8" transform="matrix(1.00, 0.00, -0.00, -1.00, 223.0, 208.0)">t</text><text xml:space="preserve" font-family="AvenirNext-Medium" font-size="28.0" fill="#A6AAA8" transform="matrix(1.00, 0.00, -0.00, -1.00, 232.2, 208.0)">a</text><text xml:space="preserve" font-family="AvenirNext-Medium" font-size="28.0" fill="#A6AAA8" transform="matrix(1.00, 0.00, -0.00, -1.00, 247.3, 208.0)"> </text><text xml:space="preserve" font-family="AvenirNext-Medium" font-size="28.0" fill="#A6AAA8" transform="matrix(1.00, 0.00, -0.00, -1.00, 254.3, 208.0)">m</text><text xml:space="preserve" font-family="AvenirNext-Medium" font-size="28.0" fill="#A6AAA8" transform="matrix(1.00, 0.00, -0.00, -1.00, 279.2, 208.0)">a</text><text xml:space="preserve" font-family="AvenirNext-Medium" font-size="28.0" fill="#A6AAA8" transform="matrix(1.00, 0.00, -0.00, -1.00, 294.4, 208.0)">n</text><text xml:space="preserve" font-family="AvenirNext-Medium" font-size="28.0" fill="#A6AAA8" transform="matrix(1.00, 0.00, -0.00, -1.00, 310.7, 208.0)">i</text><text xml:space="preserve" font-family="AvenirNext-Medium" font-size="28.0" fill="#A6AAA8" transform="matrix(1.00, 0.00, -0.00, -1.00, 317.9, 208.0)">p</text><text xml:space="preserve" font-family="AvenirNext-Medium" font-size="28.0" fill="#A6AAA8" transform="matrix(1.00, 0.00, -0.00, -1.00, 335.7, 208.0)">u</text><text xml:space="preserve" font-family="AvenirNext-Medium" font-size="28.0" fill="#A6AAA8" transform="matrix(1.00, 0.00, -0.00, -1.00, 352.0, 208.0)">l</text><text xml:space="preserve" font-family="AvenirNext-Medium" font-size="28.0" fill="#A6AAA8" transform="matrix(1.00, 0.00, -0.00, -1.00, 359.2, 208.0)">a</text><text xml:space="preserve" font-family="AvenirNext-Medium" font-size="28.0" fill="#A6AAA8" transform="matrix(1.00, 0.00, -0.00, -1.00, 374.1, 208.0)">t</text><text xml:space="preserve" font-family="AvenirNext-Medium" font-size="28.0" fill="#A6AAA8" transform="matrix(1.00, 0.00, -0.00, -1.00, 383.3, 208.0)">i</text><text xml:space="preserve" font-family="AvenirNext-Medium" font-size="28.0" fill="#A6AAA8" transform="matrix(1.00, 0.00, -0.00, -1.00, 390.6, 208.0)">o</text><text xml:space="preserve" font-family="AvenirNext-Medium" font-size="28.0" fill="#838686" transform="matrix(1.00, 0.00, -0.00, -1.00, 407.7, 208.0)">n</text><text xml:space="preserve" font-family="AvenirNext-Medium" font-size="28.0" fill="#838686" transform="matrix(1.00, 0.00, -0.00, -1.00, 424.0, 208.0)"> </text><text xml:space="preserve" font-family="LucidaGrande" font-size="29.4" fill="#34A4DA" transform="matrix(1.00, 0.00, -0.00, -1.00, 36.0, 140.2)">▸</text><text xml:space="preserve" font-family="AvenirNext-Medium" font-size="28.0" fill="#34A4DA" transform="matrix(1.00, 0.00, -0.00, -1.00, 71.0, 142.0)">R</text><text xml:space="preserve" font-family="AvenirNext-Medium" font-size="28.0" fill="#34A4DA" transform="matrix(1.00, 0.00, -0.00, -1.00, 87.9, 142.0)">e</text><text xml:space="preserve" font-family="AvenirNext-Medium" font-size="28.0" fill="#34A4DA" transform="matrix(1.00, 0.00, -0.00, -1.00, 103.9, 142.0)">q</text><text xml:space="preserve" font-family="AvenirNext-Medium" font-size="28.0" fill="#34A4DA" transform="matrix(1.00, 0.00, -0.00, -1.00, 121.6, 142.0)">u</text><text xml:space="preserve" font-family="AvenirNext-Medium" font-size="28.0" fill="#34A4DA" transform="matrix(1.00, 0.00, -0.00, -1.00, 137.9, 142.0)">e</text><text xml:space="preserve" font-family="AvenirNext-Medium" font-size="28.0" fill="#34A4DA" transform="matrix(1.00, 0.00, -0.00, -1.00, 154.0, 142.0)">s</text><text xml:space="preserve" font-family="AvenirNext-Medium" font-size="28.0" fill="#34A4DA" transform="matrix(1.00, 0.00, -0.00, -1.00, 166.4, 142.0)">t</text><text xml:space="preserve" font-family="AvenirNext-Medium" font-size="28.0" fill="#34A4DA" transform="matrix(1.00, 0.00, -0.00, -1.00, 175.6, 142.0)">s</text><text xml:space="preserve" font-family="AvenirNext-Medium" font-size="28.0" fill="#34A4DA" transform="matrix(1.00, 0.00, -0.00, -1.00, 188.0, 142.0)">:</text><text xml:space="preserve" font-family="AvenirNext-Medium" font-size="28.0" fill="#34A4DA" transform="matrix(1.00, 0.00, -0.00, -1.00, 196.4, 142.0)"> </text><text xml:space="preserve" font-family="AvenirNext-Medium" font-size="28.0" fill="#34A4DA" transform="matrix(1.00, 0.00, -0.00, -1.00, 203.4, 142.0)">H</text><text xml:space="preserve" font-family="AvenirNext-Medium" font-size="28.0" fill="#34A4DA" transform="matrix(1.00, 0.00, -0.00, -1.00, 223.9, 142.0)">T</text><text xml:space="preserve" font-family="AvenirNext-Medium" font-size="28.0" fill="#34A4DA" transform="matrix(1.00, 0.00, -0.00, -1.00, 239.8, 142.0)">T</text><text xml:space="preserve" font-family="AvenirNext-Medium" font-size="28.0" fill="#34A4DA" transform="matrix(1.00, 0.00, -0.00, -1.00, 255.7, 142.0)">P</text><text xml:space="preserve" font-family="AvenirNext-Medium" font-size="28.0" fill="#34A4DA" transform="matrix(1.00, 0.00, -0.00, -1.00, 272.4, 142.0)"> </text><text xml:space="preserve" font-family="AvenirNext-Medium" font-size="28.0" fill="#34A4DA" transform="matrix(1.00, 0.00, -0.00, -1.00, 279.4, 142.0)">f</text><text xml:space="preserve" font-family="AvenirNext-Medium" font-size="28.0" fill="#34A4DA" transform="matrix(1.00, 0.00, -0.00, -1.00, 288.1, 142.0)">o</text><text xml:space="preserve" font-family="AvenirNext-Medium" font-size="28.0" fill="#34A4DA" transform="matrix(1.00, 0.00, -0.00, -1.00, 305.1, 142.0)">r</text><text xml:space="preserve" font-family="AvenirNext-Medium" font-size="28.0" fill="#34A4DA" transform="matrix(1.00, 0.00, -0.00, -1.00, 315.3, 142.0)"> </text><text xml:space="preserve" font-family="AvenirNext-Medium" font-size="28.0" fill="#34A4DA" transform="matrix(1.00, 0.00, -0.00, -1.00, 322.3, 142.0)">H</text><text xml:space="preserve" font-family="AvenirNext-Medium" font-size="28.0" fill="#34A4DA" transform="matrix(1.00, 0.00, -0.00, -1.00, 342.7, 142.0)">u</text><text xml:space="preserve" font-family="AvenirNext-Medium" font-size="28.0" fill="#34A4DA" transform="matrix(1.00, 0.00, -0.00, -1.00, 359.0, 142.0)">m</text><text xml:space="preserve" font-family="AvenirNext-Medium" font-size="28.0" fill="#34A4DA" transform="matrix(1.00, 0.00, -0.00, -1.00, 383.8, 142.0)">a</text><text xml:space="preserve" font-family="AvenirNext-Medium" font-size="28.0" fill="#34A4DA" transform="matrix(1.00, 0.00, -0.00, -1.00, 399.0, 142.0)">n</text><text xml:space="preserve" font-family="AvenirNext-Medium" font-size="28.0" fill="#34A4DA" transform="matrix(1.00, 0.00, -0.00, -1.00, 415.3, 142.0)">s</text><text xml:space="preserve" font-family="AvenirNext-Medium" font-size="28.0" fill="#838686" transform="matrix(1.00, 0.00, -0.00, -1.00, 427.7, 142.0)"> </text><text xml:space="preserve" font-family="AvenirNext-Medium" font-size="28.0" fill="#838686" transform="matrix(1.00, 0.00, -0.00, -1.00, 434.7, 142.0)">-</text><text xml:space="preserve" font-family="AvenirNext-Medium" font-size="28.0" fill="#838686" transform="matrix(1.00, 0.00, -0.00, -1.00, 443.7, 142.0)"> </text><text xml:space="preserve" font-family="AvenirNext-Medium" font-size="28.0" fill="#838686" transform="matrix(1.00, 0.00, -0.00, -1.00, 450.7, 142.0)">H</text><text xml:space="preserve" font-family="AvenirNext-Medium" font-size="28.0" fill="#838686" transform="matrix(1.00, 0.00, -0.00, -1.00, 471.1, 142.0)">T</text><text xml:space="preserve" font-family="AvenirNext-Medium" font-size="28.0" fill="#838686" transform="matrix(1.00, 0.00, -0.00, -1.00, 487.0, 142.0)">T</text><text xml:space="preserve" font-family="AvenirNext-Medium" font-size="28.0" fill="#838686" transform="matrix(1.00, 0.00, -0.00, -1.00, 503.0, 142.0)">P</text><text xml:space="preserve" font-family="AvenirNext-Medium" font-size="28.0" fill="#838686" transform="matrix(1.00, 0.00, -0.00, -1.00, 519.6, 142.0)"> </text><text xml:space="preserve" font-family="AvenirNext-Medium" font-size="28.0" fill="#838686" transform="matrix(1.00, 0.00, -0.00, -1.00, 71.0, 104.0)">L</text><text xml:space="preserve" font-family="AvenirNext-Medium" font-size="28.0" fill="#838686" transform="matrix(1.00, 0.00, -0.00, -1.00, 85.3, 104.0)">i</text><text xml:space="preserve" font-family="AvenirNext-Medium" font-size="28.0" fill="#838686" transform="matrix(1.00, 0.00, -0.00, -1.00, 92.6, 104.0)">b</text><text xml:space="preserve" font-family="AvenirNext-Medium" font-size="28.0" fill="#838686" transform="matrix(1.00, 0.00, -0.00, -1.00, 110.4, 104.0)">r</text><text xml:space="preserve" font-family="AvenirNext-Medium" font-size="28.0" fill="#838686" transform="matrix(1.00, 0.00, -0.00, -1.00, 120.1, 104.0)">a</text><text xml:space="preserve" font-family="AvenirNext-Medium" font-size="28.0" fill="#838686" transform="matrix(1.00, 0.00, -0.00, -1.00, 135.3, 104.0)">r</text><text xml:space="preserve" font-family="AvenirNext-Medium" font-size="28.0" fill="#838686" transform="matrix(1.00, 0.00, -0.00, -1.00, 145.5, 104.0)">y</text><g><clipPath id="clip-60"><path d="M 566.0 599.0 L 767.0 599.0 L 767.0 509.0 L 566.0 509.0 Z M 565.7 599.2 "></path></clipPath><g clip-path="url(#clip-60)"><image xlink:href="../../C1BE9737-1934-4C73-AF21-DEEE6F85D5AC/assets/1284579EB20C73A8BAC80880703BDCCF.png" width="202.00" height="125.00" transform="matrix(1.00, 0.00, -0.00, -0.99, 566.0, 616.0)"></image></g></g><image xlink:href="../../C1BE9737-1934-4C73-AF21-DEEE6F85D5AC/assets/4C026443598425BA1A8634A2BC8CF0F1.png" width="218.00" height="117.00" transform="matrix(1.00, 0.00, -0.00, 1.00, 557.7, 490.0)"></image><image xlink:href="../../C1BE9737-1934-4C73-AF21-DEEE6F85D5AC/assets/8F95E9DA163910045DEDB86623F8340E.png" width="375.00" height="78.00" transform="matrix(1.00, 0.00, -0.00, -1.00, 604.0, 198.0)"></image><image xlink:href="../../C1BE9737-1934-4C73-AF21-DEEE6F85D5AC/assets/A4CBF37BAEE1227BA4B9B1559B9A5900.png" width="392.00" height="105.00" transform="matrix(1.00, 0.00, -0.00, 1.00, 596.0, 101.0)"></image><image xlink:href="../../C1BE9737-1934-4C73-AF21-DEEE6F85D5AC/assets/32C3C60CDA5DDB415ADB71D28ACB883E.png" width="480.00" height="88.00" transform="matrix(1.00, 0.00, -0.00, -1.00, 491.0, 397.0)"></image><image xlink:href="../../C1BE9737-1934-4C73-AF21-DEEE6F85D5AC/assets/C51678BB3D302D17F12DABB19B2E4CC8.png" width="497.00" height="115.00" transform="matrix(1.00, 0.00, -0.00, 1.00, 483.0, 290.0)"></image></g></svg>