<?xml version="1.0" encoding="UTF-8" standalone="no"?><svg xmlns="http://www.w3.org/2000/svg" xmlns:xlink="http://www.w3.org/1999/xlink" clip-rule="evenodd" stroke-miterlimit="4.00" viewBox="0 0 1024 768"><desc>SVG generated by Keynote</desc><defs></defs><g transform="matrix(1.00, 0.00, -0.00, -1.00, 0.0, 768.0)"><path d="M 0.0 768.0 L 1024.0 768.0 L 1024.0 0.0 L 0.0 0.0 Z M 0.0 768.0 " fill="#212121"></path><path d="M 0.0 0.0 L 960.0 0.0 " fill="none" stroke="#A6AAA9" stroke-width="2.00" transform="matrix(1.00, 0.00, 0.00, -1.00, 32.0, 689.8)"></path><text xml:space="preserve" font-family="DINCondensed-Bold" font-weight="bold" font-size="48.0" fill="#34A4DA" transform="matrix(1.00, 0.00, -0.00, -1.00, 36.0, 608.0)">C</text><text xml:space="preserve" font-family="DINCondensed-Bold" font-weight="bold" font-size="48.0" fill="#34A4DA" transform="matrix(1.00, 0.00, -0.00, -1.00, 55.5, 608.0)">R</text><text xml:space="preserve" font-family="DINCondensed-Bold" font-weight="bold" font-size="48.0" fill="#34A4DA" transform="matrix(1.00, 0.00, -0.00, -1.00, 76.0, 608.0)">E</text><text xml:space="preserve" font-family="DINCondensed-Bold" font-weight="bold" font-size="48.0" fill="#34A4DA" transform="matrix(1.00, 0.00, -0.00, -1.00, 93.7, 608.0)">A</text><text xml:space="preserve" font-family="DINCondensed-Bold" font-weight="bold" font-size="48.0" fill="#34A4DA" transform="matrix(1.00, 0.00, -0.00, -1.00, 110.6, 608.0)">T</text><text xml:space="preserve" font-family="DINCondensed-Bold" font-weight="bold" font-size="48.0" fill="#34A4DA" transform="matrix(1.00, 0.00, -0.00, -1.00, 126.6, 608.0)">I</text><text xml:space="preserve" font-family="DINCondensed-Bold" font-weight="bold" font-size="48.0" fill="#34A4DA" transform="matrix(1.00, 0.00, -0.00, -1.00, 136.4, 608.0)">N</text><text xml:space="preserve" font-family="DINCondensed-Bold" font-weight="bold" font-size="48.0" fill="#34A4DA" transform="matrix(1.00, 0.00, -0.00, -1.00, 157.7, 608.0)">G</text><text xml:space="preserve" font-family="DINCondensed-Bold" font-weight="bold" font-size="48.0" fill="#34A4DA" transform="matrix(1.00, 0.00, -0.00, -1.00, 178.1, 608.0)"> </text><text xml:space="preserve" font-family="DINCondensed-Bold" font-weight="bold" font-size="48.0" fill="#34A4DA" transform="matrix(1.00, 0.00, -0.00, -1.00, 187.1, 608.0)">V</text><text xml:space="preserve" font-family="DINCondensed-Bold" font-weight="bold" font-size="48.0" fill="#34A4DA" transform="matrix(1.00, 0.00, -0.00, -1.00, 206.6, 608.0)">I</text><text xml:space="preserve" font-family="DINCondensed-Bold" font-weight="bold" font-size="48.0" fill="#34A4DA" transform="matrix(1.00, 0.00, -0.00, -1.00, 216.4, 608.0)">S</text><text xml:space="preserve" font-family="DINCondensed-Bold" font-weight="bold" font-size="48.0" fill="#34A4DA" transform="matrix(1.00, 0.00, -0.00, -1.00, 235.9, 608.0)">U</text><text xml:space="preserve" font-family="DINCondensed-Bold" font-weight="bold" font-size="48.0" fill="#34A4DA" transform="matrix(1.00, 0.00, -0.00, -1.00, 255.7, 608.0)">A</text><text xml:space="preserve" font-family="DINCondensed-Bold" font-weight="bold" font-size="48.0" fill="#34A4DA" transform="matrix(1.00, 0.00, -0.00, -1.00, 275.3, 608.0)">L</text><text xml:space="preserve" font-family="DINCondensed-Bold" font-weight="bold" font-size="48.0" fill="#34A4DA" transform="matrix(1.00, 0.00, -0.00, -1.00, 293.0, 608.0)">I</text><text xml:space="preserve" font-family="DINCondensed-Bold" font-weight="bold" font-size="48.0" fill="#34A4DA" transform="matrix(1.00, 0.00, -0.00, -1.00, 302.8, 608.0)">Z</text><text xml:space="preserve" font-family="DINCondensed-Bold" font-weight="bold" font-size="48.0" fill="#34A4DA" transform="matrix(1.00, 0.00, -0.00, -1.00, 318.8, 608.0)">A</text><text xml:space="preserve" font-family="DINCondensed-Bold" font-weight="bold" font-size="48.0" fill="#34A4DA" transform="matrix(1.00, 0.00, -0.00, -1.00, 335.7, 608.0)">T</text><text xml:space="preserve" font-family="DINCondensed-Bold" font-weight="bold" font-size="48.0" fill="#34A4DA" transform="matrix(1.00, 0.00, -0.00, -1.00, 351.6, 608.0)">I</text><text xml:space="preserve" font-family="DINCondensed-Bold" font-weight="bold" font-size="48.0" fill="#34A4DA" transform="matrix(1.00, 0.00, -0.00, -1.00, 361.4, 608.0)">O</text><text xml:space="preserve" font-family="DINCondensed-Bold" font-weight="bold" font-size="48.0" fill="#34A4DA" transform="matrix(1.00, 0.00, -0.00, -1.00, 381.9, 608.0)">N</text><text xml:space="preserve" font-family="DINCondensed-Bold" font-weight="bold" font-size="48.0" fill="#34A4DA" transform="matrix(1.00, 0.00, -0.00, -1.00, 403.2, 608.0)">S</text><text xml:space="preserve" font-family="DINCondensed-Bold" font-weight="bold" font-size="48.0" fill="#34A4DA" transform="matrix(1.00, 0.00, -0.00, -1.00, 422.7, 608.0)">:</text><text xml:space="preserve" font-family="DINCondensed-Bold" font-weight="bold" font-size="48.0" fill="#34A4DA" transform="matrix(1.00, 0.00, -0.00, -1.00, 431.6, 608.0)"> </text><text xml:space="preserve" font-family="DINCondensed-Bold" font-weight="bold" font-size="48.0" fill="#34A4DA" transform="matrix(1.00, 0.00, -0.00, -1.00, 440.5, 608.0)">P</text><text xml:space="preserve" font-family="DINCondensed-Bold" font-weight="bold" font-size="48.0" fill="#34A4DA" transform="matrix(1.00, 0.00, -0.00, -1.00, 460.1, 608.0)">Y</text><text xml:space="preserve" font-family="DINCondensed-Bold" font-weight="bold" font-size="48.0" fill="#34A4DA" transform="matrix(1.00, 0.00, -0.00, -1.00, 478.7, 608.0)">T</text><text xml:space="preserve" font-family="DINCondensed-Bold" font-weight="bold" font-size="48.0" fill="#34A4DA" transform="matrix(1.00, 0.00, -0.00, -1.00, 494.6, 608.0)">H</text><text xml:space="preserve" font-family="DINCondensed-Bold" font-weight="bold" font-size="48.0" fill="#34A4DA" transform="matrix(1.00, 0.00, -0.00, -1.00, 515.1, 608.0)">O</text><text xml:space="preserve" font-family="DINCondensed-Bold" font-weight="bold" font-size="48.0" fill="#34A4DA" transform="matrix(1.00, 0.00, -0.00, -1.00, 535.5, 608.0)">N</text><text xml:space="preserve" font-family="DINCondensed-Bold" font-weight="bold" font-size="48.0" fill="#34A4DA" transform="matrix(1.00, 0.00, -0.00, -1.00, 556.8, 608.0)"> </text><text xml:space="preserve" font-family="DINCondensed-Bold" font-weight="bold" font-size="48.0" fill="#34A4DA" transform="matrix(1.00, 0.00, -0.00, -1.00, 565.8, 608.0)">T</text><text xml:space="preserve" font-family="DINCondensed-Bold" font-weight="bold" font-size="48.0" fill="#34A4DA" transform="matrix(1.00, 0.00, -0.00, -1.00, 581.1, 608.0)">O</text><text xml:space="preserve" font-family="DINCondensed-Bold" font-weight="bold" font-size="48.0" fill="#34A4DA" transform="matrix(1.00, 0.00, -0.00, -1.00, 601.6, 608.0)"> </text><text xml:space="preserve" font-family="DINCondensed-Bold" font-weight="bold" font-size="48.0" fill="#34A4DA" transform="matrix(1.00, 0.00, -0.00, -1.00, 610.5, 608.0)">T</text><text xml:space="preserve" font-family="DINCondensed-Bold" font-weight="bold" font-size="48.0" fill="#34A4DA" transform="matrix(1.00, 0.00, -0.00, -1.00, 626.4, 608.0)">H</text><text xml:space="preserve" font-family="DINCondensed-Bold" font-weight="bold" font-size="48.0" fill="#34A4DA" transform="matrix(1.00, 0.00, -0.00, -1.00, 646.9, 608.0)">E</text><text xml:space="preserve" font-family="DINCondensed-Bold" font-weight="bold" font-size="48.0" fill="#34A4DA" transform="matrix(1.00, 0.00, -0.00, -1.00, 664.7, 608.0)"> </text><text xml:space="preserve" font-family="DINCondensed-Bold" font-weight="bold" font-size="48.0" fill="#34A4DA" transform="matrix(1.00, 0.00, -0.00, -1.00, 673.6, 608.0)">R</text><text xml:space="preserve" font-family="DINCondensed-Bold" font-weight="bold" font-size="48.0" fill="#34A4DA" transform="matrix(1.00, 0.00, -0.00, -1.00, 694.0, 608.0)">E</text><text xml:space="preserve" font-family="DINCondensed-Bold" font-weight="bold" font-size="48.0" fill="#34A4DA" transform="matrix(1.00, 0.00, -0.00, -1.00, 711.8, 608.0)">S</text><text xml:space="preserve" font-family="DINCondensed-Bold" font-weight="bold" font-size="48.0" fill="#34A4DA" transform="matrix(1.00, 0.00, -0.00, -1.00, 731.3, 608.0)">C</text><text xml:space="preserve" font-family="DINCondensed-Bold" font-weight="bold" font-size="48.0" fill="#34A4DA" transform="matrix(1.00, 0.00, -0.00, -1.00, 750.8, 608.0)">U</text><text xml:space="preserve" font-family="DINCondensed-Bold" font-weight="bold" font-size="48.0" fill="#34A4DA" transform="matrix(1.00, 0.00, -0.00, -1.00, 771.3, 608.0)">E</text><text xml:space="preserve" font-family="LucidaGrande" font-size="31.5" fill="#34A4DA" transform="matrix(1.00, 0.00, -0.00, -1.00, 36.0, 515.6)">▸</text><text xml:space="preserve" font-family="AvenirNext-Medium" font-size="30.0" fill="#838686" transform="matrix(1.00, 0.00, -0.00, -1.00, 71.0, 518.0)">P</text><text xml:space="preserve" font-family="AvenirNext-Medium" font-size="30.0" fill="#838686" transform="matrix(1.00, 0.00, -0.00, -1.00, 87.6, 518.0)">y</text><text xml:space="preserve" font-family="AvenirNext-Medium" font-size="30.0" fill="#838686" transform="matrix(1.00, 0.00, -0.00, -1.00, 102.7, 518.0)">t</text><text xml:space="preserve" font-family="AvenirNext-Medium" font-size="30.0" fill="#838686" transform="matrix(1.00, 0.00, -0.00, -1.00, 112.6, 518.0)">h</text><text xml:space="preserve" font-family="AvenirNext-Medium" font-size="30.0" fill="#838686" transform="matrix(1.00, 0.00, -0.00, -1.00, 130.1, 518.0)">o</text><text xml:space="preserve" font-family="AvenirNext-Medium" font-size="30.0" fill="#838686" transform="matrix(1.00, 0.00, -0.00, -1.00, 148.4, 518.0)">n</text><text xml:space="preserve" font-family="AvenirNext-Medium" font-size="30.0" fill="#838686" transform="matrix(1.00, 0.00, -0.00, -1.00, 165.9, 518.0)"> </text><text xml:space="preserve" font-family="AvenirNext-Medium" font-size="30.0" fill="#838686" transform="matrix(1.00, 0.00, -0.00, -1.00, 173.4, 518.0)">i</text><text xml:space="preserve" font-family="AvenirNext-Medium" font-size="30.0" fill="#838686" transform="matrix(1.00, 0.00, -0.00, -1.00, 181.1, 518.0)">s</text><text xml:space="preserve" font-family="AvenirNext-Medium" font-size="30.0" fill="#838686" transform="matrix(1.00, 0.00, -0.00, -1.00, 194.4, 518.0)"> </text><text xml:space="preserve" font-family="AvenirNext-Medium" font-size="30.0" fill="#838686" transform="matrix(1.00, 0.00, -0.00, -1.00, 201.9, 518.0)">a</text><text xml:space="preserve" font-family="AvenirNext-Medium" font-size="30.0" fill="#838686" transform="matrix(1.00, 0.00, -0.00, -1.00, 218.2, 518.0)"> </text><text xml:space="preserve" font-family="AvenirNext-Medium" font-size="30.0" fill="#838686" transform="matrix(1.00, 0.00, -0.00, -1.00, 225.7, 518.0)">l</text><text xml:space="preserve" font-family="AvenirNext-Medium" font-size="30.0" fill="#838686" transform="matrix(1.00, 0.00, -0.00, -1.00, 233.5, 518.0)">e</text><text xml:space="preserve" font-family="AvenirNext-Medium" font-size="30.0" fill="#838686" transform="matrix(1.00, 0.00, -0.00, -1.00, 250.5, 518.0)">a</text><text xml:space="preserve" font-family="AvenirNext-Medium" font-size="30.0" fill="#838686" transform="matrix(1.00, 0.00, -0.00, -1.00, 266.8, 518.0)">d</text><text xml:space="preserve" font-family="AvenirNext-Medium" font-size="30.0" fill="#838686" transform="matrix(1.00, 0.00, -0.00, -1.00, 285.8, 518.0)">i</text><text xml:space="preserve" font-family="AvenirNext-Medium" font-size="30.0" fill="#838686" transform="matrix(1.00, 0.00, -0.00, -1.00, 293.6, 518.0)">n</text><text xml:space="preserve" font-family="AvenirNext-Medium" font-size="30.0" fill="#838686" transform="matrix(1.00, 0.00, -0.00, -1.00, 311.1, 518.0)">g</text><text xml:space="preserve" font-family="AvenirNext-Medium" font-size="30.0" fill="#838686" transform="matrix(1.00, 0.00, -0.00, -1.00, 330.0, 518.0)"> </text><text xml:space="preserve" font-family="AvenirNext-Medium" font-size="30.0" fill="#838686" transform="matrix(1.00, 0.00, -0.00, -1.00, 337.5, 518.0)">l</text><text xml:space="preserve" font-family="AvenirNext-Medium" font-size="30.0" fill="#838686" transform="matrix(1.00, 0.00, -0.00, -1.00, 345.3, 518.0)">a</text><text xml:space="preserve" font-family="AvenirNext-Medium" font-size="30.0" fill="#838686" transform="matrix(1.00, 0.00, -0.00, -1.00, 361.6, 518.0)">n</text><text xml:space="preserve" font-family="AvenirNext-Medium" font-size="30.0" fill="#838686" transform="matrix(1.00, 0.00, -0.00, -1.00, 379.0, 518.0)">g</text><text xml:space="preserve" font-family="AvenirNext-Medium" font-size="30.0" fill="#838686" transform="matrix(1.00, 0.00, -0.00, -1.00, 398.0, 518.0)">u</text><text xml:space="preserve" font-family="AvenirNext-Medium" font-size="30.0" fill="#838686" transform="matrix(1.00, 0.00, -0.00, -1.00, 415.5, 518.0)">a</text><text xml:space="preserve" font-family="AvenirNext-Medium" font-size="30.0" fill="#838686" transform="matrix(1.00, 0.00, -0.00, -1.00, 431.7, 518.0)">g</text><text xml:space="preserve" font-family="AvenirNext-Medium" font-size="30.0" fill="#838686" transform="matrix(1.00, 0.00, -0.00, -1.00, 450.7, 518.0)">e</text><text xml:space="preserve" font-family="AvenirNext-Medium" font-size="30.0" fill="#838686" transform="matrix(1.00, 0.00, -0.00, -1.00, 467.9, 518.0)"> </text><text xml:space="preserve" font-family="AvenirNext-Medium" font-size="30.0" fill="#838686" transform="matrix(1.00, 0.00, -0.00, -1.00, 475.4, 518.0)">i</text><text xml:space="preserve" font-family="AvenirNext-Medium" font-size="30.0" fill="#838686" transform="matrix(1.00, 0.00, -0.00, -1.00, 483.1, 518.0)">n</text><text xml:space="preserve" font-family="AvenirNext-Medium" font-size="30.0" fill="#838686" transform="matrix(1.00, 0.00, -0.00, -1.00, 500.6, 518.0)"> </text><text xml:space="preserve" font-family="AvenirNext-Medium" font-size="30.0" fill="#838686" transform="matrix(1.00, 0.00, -0.00, -1.00, 508.1, 518.0)">t</text><text xml:space="preserve" font-family="AvenirNext-Medium" font-size="30.0" fill="#838686" transform="matrix(1.00, 0.00, -0.00, -1.00, 518.0, 518.0)">h</text><text xml:space="preserve" font-family="AvenirNext-Medium" font-size="30.0" fill="#838686" transform="matrix(1.00, 0.00, -0.00, -1.00, 535.5, 518.0)">e</text><text xml:space="preserve" font-family="AvenirNext-Medium" font-size="30.0" fill="#838686" transform="matrix(1.00, 0.00, -0.00, -1.00, 552.7, 518.0)"> </text><text xml:space="preserve" font-family="AvenirNext-Medium" font-size="30.0" fill="#838686" transform="matrix(1.00, 0.00, -0.00, -1.00, 560.2, 518.0)">ﬁ</text><text xml:space="preserve" font-family="AvenirNext-Medium" font-size="30.0" fill="#838686" transform="matrix(1.00, 0.00, -0.00, -1.00, 577.4, 518.0)">e</text><text xml:space="preserve" font-family="AvenirNext-Medium" font-size="30.0" fill="#838686" transform="matrix(1.00, 0.00, -0.00, -1.00, 594.6, 518.0)">l</text><text xml:space="preserve" font-family="AvenirNext-Medium" font-size="30.0" fill="#838686" transform="matrix(1.00, 0.00, -0.00, -1.00, 602.4, 518.0)">d</text><text xml:space="preserve" font-family="AvenirNext-Medium" font-size="30.0" fill="#838686" transform="matrix(1.00, 0.00, -0.00, -1.00, 621.4, 518.0)"> </text><text xml:space="preserve" font-family="AvenirNext-Medium" font-size="30.0" fill="#838686" transform="matrix(1.00, 0.00, -0.00, -1.00, 628.9, 518.0)">o</text><text xml:space="preserve" font-family="AvenirNext-Medium" font-size="30.0" fill="#838686" transform="matrix(1.00, 0.00, -0.00, -1.00, 647.2, 518.0)">f</text><text xml:space="preserve" font-family="AvenirNext-Medium" font-size="30.0" fill="#838686" transform="matrix(1.00, 0.00, -0.00, -1.00, 657.3, 518.0)"> </text><text xml:space="preserve" font-family="AvenirNext-Medium" font-size="30.0" fill="#838686" transform="matrix(1.00, 0.00, -0.00, -1.00, 664.8, 518.0)">d</text><text xml:space="preserve" font-family="AvenirNext-Medium" font-size="30.0" fill="#838686" transform="matrix(1.00, 0.00, -0.00, -1.00, 683.8, 518.0)">a</text><text xml:space="preserve" font-family="AvenirNext-Medium" font-size="30.0" fill="#838686" transform="matrix(1.00, 0.00, -0.00, -1.00, 699.8, 518.0)">t</text><text xml:space="preserve" font-family="AvenirNext-Medium" font-size="30.0" fill="#838686" transform="matrix(1.00, 0.00, -0.00, -1.00, 709.6, 518.0)">a</text><text xml:space="preserve" font-family="AvenirNext-Medium" font-size="30.0" fill="#838686" transform="matrix(1.00, 0.00, -0.00, -1.00, 725.9, 518.0)"> </text><text xml:space="preserve" font-family="AvenirNext-Medium" font-size="30.0" fill="#838686" transform="matrix(1.00, 0.00, -0.00, -1.00, 733.4, 518.0)">a</text><text xml:space="preserve" font-family="AvenirNext-Medium" font-size="30.0" fill="#838686" transform="matrix(1.00, 0.00, -0.00, -1.00, 749.7, 518.0)">n</text><text xml:space="preserve" font-family="AvenirNext-Medium" font-size="30.0" fill="#838686" transform="matrix(1.00, 0.00, -0.00, -1.00, 767.1, 518.0)">a</text><text xml:space="preserve" font-family="AvenirNext-Medium" font-size="30.0" fill="#838686" transform="matrix(1.00, 0.00, -0.00, -1.00, 783.4, 518.0)">l</text><text xml:space="preserve" font-family="AvenirNext-Medium" font-size="30.0" fill="#838686" transform="matrix(1.00, 0.00, -0.00, -1.00, 791.2, 518.0)">y</text><text xml:space="preserve" font-family="AvenirNext-Medium" font-size="30.0" fill="#838686" transform="matrix(1.00, 0.00, -0.00, -1.00, 806.3, 518.0)">s</text><text xml:space="preserve" font-family="AvenirNext-Medium" font-size="30.0" fill="#838686" transform="matrix(1.00, 0.00, -0.00, -1.00, 819.6, 518.0)">i</text><text xml:space="preserve" font-family="AvenirNext-Medium" font-size="30.0" fill="#838686" transform="matrix(1.00, 0.00, -0.00, -1.00, 827.4, 518.0)">s</text><text xml:space="preserve" font-family="AvenirNext-Medium" font-size="30.0" fill="#838686" transform="matrix(1.00, 0.00, -0.00, -1.00, 840.7, 518.0)"> </text><text xml:space="preserve" font-family="AvenirNext-Medium" font-size="30.0" fill="#838686" transform="matrix(1.00, 0.00, -0.00, -1.00, 848.2, 518.0)">a</text><text xml:space="preserve" font-family="AvenirNext-Medium" font-size="30.0" fill="#838686" transform="matrix(1.00, 0.00, -0.00, -1.00, 864.5, 518.0)">n</text><text xml:space="preserve" font-family="AvenirNext-Medium" font-size="30.0" fill="#838686" transform="matrix(1.00, 0.00, -0.00, -1.00, 881.9, 518.0)">d</text><text xml:space="preserve" font-family="AvenirNext-Medium" font-size="30.0" fill="#838686" transform="matrix(1.00, 0.00, -0.00, -1.00, 901.0, 518.0)"> </text><text xml:space="preserve" font-family="AvenirNext-Medium" font-size="30.0" fill="#838686" transform="matrix(1.00, 0.00, -0.00, -1.00, 71.0, 477.0)">v</text><text xml:space="preserve" font-family="AvenirNext-Medium" font-size="30.0" fill="#838686" transform="matrix(1.00, 0.00, -0.00, -1.00, 86.1, 477.0)">i</text><text xml:space="preserve" font-family="AvenirNext-Medium" font-size="30.0" fill="#838686" transform="matrix(1.00, 0.00, -0.00, -1.00, 93.9, 477.0)">s</text><text xml:space="preserve" font-family="AvenirNext-Medium" font-size="30.0" fill="#838686" transform="matrix(1.00, 0.00, -0.00, -1.00, 107.2, 477.0)">u</text><text xml:space="preserve" font-family="AvenirNext-Medium" font-size="30.0" fill="#838686" transform="matrix(1.00, 0.00, -0.00, -1.00, 124.7, 477.0)">a</text><text xml:space="preserve" font-family="AvenirNext-Medium" font-size="30.0" fill="#838686" transform="matrix(1.00, 0.00, -0.00, -1.00, 140.9, 477.0)">l</text><text xml:space="preserve" font-family="AvenirNext-Medium" font-size="30.0" fill="#838686" transform="matrix(1.00, 0.00, -0.00, -1.00, 148.7, 477.0)">i</text><text xml:space="preserve" font-family="AvenirNext-Medium" font-size="30.0" fill="#838686" transform="matrix(1.00, 0.00, -0.00, -1.00, 156.5, 477.0)">z</text><text xml:space="preserve" font-family="AvenirNext-Medium" font-size="30.0" fill="#838686" transform="matrix(1.00, 0.00, -0.00, -1.00, 170.4, 477.0)">a</text><text xml:space="preserve" font-family="AvenirNext-Medium" font-size="30.0" fill="#838686" transform="matrix(1.00, 0.00, -0.00, -1.00, 186.3, 477.0)">t</text><text xml:space="preserve" font-family="AvenirNext-Medium" font-size="30.0" fill="#838686" transform="matrix(1.00, 0.00, -0.00, -1.00, 196.2, 477.0)">i</text><text xml:space="preserve" font-family="AvenirNext-Medium" font-size="30.0" fill="#838686" transform="matrix(1.00, 0.00, -0.00, -1.00, 204.0, 477.0)">o</text><text xml:space="preserve" font-family="AvenirNext-Medium" font-size="30.0" fill="#838686" transform="matrix(1.00, 0.00, -0.00, -1.00, 222.3, 477.0)">n</text><text xml:space="preserve" font-family="AvenirNext-Medium" font-size="30.0" fill="#838686" transform="matrix(1.00, 0.00, -0.00, -1.00, 239.7, 477.0)"> </text><text xml:space="preserve" font-family="LucidaGrande" font-size="30.4" fill="#34A4DA" transform="matrix(1.00, 0.00, -0.00, -1.00, 71.0, 406.9)">▸</text><text xml:space="preserve" font-family="AvenirNext-Medium" font-size="29.0" fill="#838686" transform="matrix(1.00, 0.00, -0.00, -1.00, 106.0, 409.0)">E</text><text xml:space="preserve" font-family="AvenirNext-Medium" font-size="29.0" fill="#838686" transform="matrix(1.00, 0.00, -0.00, -1.00, 123.4, 409.0)">a</text><text xml:space="preserve" font-family="AvenirNext-Medium" font-size="29.0" fill="#838686" transform="matrix(1.00, 0.00, -0.00, -1.00, 139.1, 409.0)">s</text><text xml:space="preserve" font-family="AvenirNext-Medium" font-size="29.0" fill="#838686" transform="matrix(1.00, 0.00, -0.00, -1.00, 152.0, 409.0)">y</text><text xml:space="preserve" font-family="AvenirNext-Medium" font-size="29.0" fill="#838686" transform="matrix(1.00, 0.00, -0.00, -1.00, 166.6, 409.0)"> </text><text xml:space="preserve" font-family="AvenirNext-Medium" font-size="29.0" fill="#838686" transform="matrix(1.00, 0.00, -0.00, -1.00, 173.9, 409.0)">l</text><text xml:space="preserve" font-family="AvenirNext-Medium" font-size="29.0" fill="#838686" transform="matrix(1.00, 0.00, -0.00, -1.00, 181.4, 409.0)">e</text><text xml:space="preserve" font-family="AvenirNext-Medium" font-size="29.0" fill="#838686" transform="matrix(1.00, 0.00, -0.00, -1.00, 197.9, 409.0)">a</text><text xml:space="preserve" font-family="AvenirNext-Medium" font-size="29.0" fill="#838686" transform="matrix(1.00, 0.00, -0.00, -1.00, 213.6, 409.0)">r</text><text xml:space="preserve" font-family="AvenirNext-Medium" font-size="29.0" fill="#838686" transform="matrix(1.00, 0.00, -0.00, -1.00, 224.1, 409.0)">n</text><text xml:space="preserve" font-family="AvenirNext-Medium" font-size="29.0" fill="#838686" transform="matrix(1.00, 0.00, -0.00, -1.00, 241.0, 409.0)">i</text><text xml:space="preserve" font-family="AvenirNext-Medium" font-size="29.0" fill="#838686" transform="matrix(1.00, 0.00, -0.00, -1.00, 248.5, 409.0)">n</text><text xml:space="preserve" font-family="AvenirNext-Medium" font-size="29.0" fill="#838686" transform="matrix(1.00, 0.00, -0.00, -1.00, 265.4, 409.0)">g</text><text xml:space="preserve" font-family="AvenirNext-Medium" font-size="29.0" fill="#838686" transform="matrix(1.00, 0.00, -0.00, -1.00, 283.7, 409.0)"> </text><text xml:space="preserve" font-family="AvenirNext-Medium" font-size="29.0" fill="#838686" transform="matrix(1.00, 0.00, -0.00, -1.00, 290.9, 409.0)">c</text><text xml:space="preserve" font-family="AvenirNext-Medium" font-size="29.0" fill="#838686" transform="matrix(1.00, 0.00, -0.00, -1.00, 305.3, 409.0)">u</text><text xml:space="preserve" font-family="AvenirNext-Medium" font-size="29.0" fill="#838686" transform="matrix(1.00, 0.00, -0.00, -1.00, 322.1, 409.0)">r</text><text xml:space="preserve" font-family="AvenirNext-Medium" font-size="29.0" fill="#838686" transform="matrix(1.00, 0.00, -0.00, -1.00, 332.6, 409.0)">v</text><text xml:space="preserve" font-family="AvenirNext-Medium" font-size="29.0" fill="#838686" transform="matrix(1.00, 0.00, -0.00, -1.00, 347.3, 409.0)">e</text><text xml:space="preserve" font-family="AvenirNext-Medium" font-size="29.0" fill="#838686" transform="matrix(1.00, 0.00, -0.00, -1.00, 363.9, 409.0)"> </text><text xml:space="preserve" font-family="LucidaGrande" font-size="30.4" fill="#34A4DA" transform="matrix(1.00, 0.00, -0.00, -1.00, 71.0, 351.9)">▸</text><text xml:space="preserve" font-family="AvenirNext-Medium" font-size="29.0" fill="#838686" transform="matrix(1.00, 0.00, -0.00, -1.00, 106.0, 354.0)">B</text><text xml:space="preserve" font-family="AvenirNext-Medium" font-size="29.0" fill="#838686" transform="matrix(1.00, 0.00, -0.00, -1.00, 124.6, 354.0)">u</text><text xml:space="preserve" font-family="AvenirNext-Medium" font-size="29.0" fill="#838686" transform="matrix(1.00, 0.00, -0.00, -1.00, 141.5, 354.0)">i</text><text xml:space="preserve" font-family="AvenirNext-Medium" font-size="29.0" fill="#838686" transform="matrix(1.00, 0.00, -0.00, -1.00, 149.0, 354.0)">l</text><text xml:space="preserve" font-family="AvenirNext-Medium" font-size="29.0" fill="#838686" transform="matrix(1.00, 0.00, -0.00, -1.00, 156.5, 354.0)">t</text><text xml:space="preserve" font-family="AvenirNext-Medium" font-size="29.0" fill="#838686" transform="matrix(1.00, 0.00, -0.00, -1.00, 166.1, 354.0)">-</text><text xml:space="preserve" font-family="AvenirNext-Medium" font-size="29.0" fill="#838686" transform="matrix(1.00, 0.00, -0.00, -1.00, 175.4, 354.0)">i</text><text xml:space="preserve" font-family="AvenirNext-Medium" font-size="29.0" fill="#838686" transform="matrix(1.00, 0.00, -0.00, -1.00, 182.9, 354.0)">n</text><text xml:space="preserve" font-family="AvenirNext-Medium" font-size="29.0" fill="#838686" transform="matrix(1.00, 0.00, -0.00, -1.00, 199.8, 354.0)"> </text><text xml:space="preserve" font-family="AvenirNext-Medium" font-size="29.0" fill="#838686" transform="matrix(1.00, 0.00, -0.00, -1.00, 207.0, 354.0)">t</text><text xml:space="preserve" font-family="AvenirNext-Medium" font-size="29.0" fill="#838686" transform="matrix(1.00, 0.00, -0.00, -1.00, 216.5, 354.0)">e</text><text xml:space="preserve" font-family="AvenirNext-Medium" font-size="29.0" fill="#838686" transform="matrix(1.00, 0.00, -0.00, -1.00, 233.2, 354.0)">s</text><text xml:space="preserve" font-family="AvenirNext-Medium" font-size="29.0" fill="#838686" transform="matrix(1.00, 0.00, -0.00, -1.00, 246.0, 354.0)">t</text><text xml:space="preserve" font-family="AvenirNext-Medium" font-size="29.0" fill="#838686" transform="matrix(1.00, 0.00, -0.00, -1.00, 255.6, 354.0)">i</text><text xml:space="preserve" font-family="AvenirNext-Medium" font-size="29.0" fill="#838686" transform="matrix(1.00, 0.00, -0.00, -1.00, 263.1, 354.0)">n</text><text xml:space="preserve" font-family="AvenirNext-Medium" font-size="29.0" fill="#838686" transform="matrix(1.00, 0.00, -0.00, -1.00, 280.0, 354.0)">g</text><text xml:space="preserve" font-family="AvenirNext-Medium" font-size="29.0" fill="#838686" transform="matrix(1.00, 0.00, -0.00, -1.00, 298.3, 354.0)"> </text><text xml:space="preserve" font-family="AvenirNext-Medium" font-size="29.0" fill="#838686" transform="matrix(1.00, 0.00, -0.00, -1.00, 305.5, 354.0)">f</text><text xml:space="preserve" font-family="AvenirNext-Medium" font-size="29.0" fill="#838686" transform="matrix(1.00, 0.00, -0.00, -1.00, 314.5, 354.0)">r</text><text xml:space="preserve" font-family="AvenirNext-Medium" font-size="29.0" fill="#838686" transform="matrix(1.00, 0.00, -0.00, -1.00, 324.7, 354.0)">a</text><text xml:space="preserve" font-family="AvenirNext-Medium" font-size="29.0" fill="#838686" transform="matrix(1.00, 0.00, -0.00, -1.00, 340.4, 354.0)">m</text><text xml:space="preserve" font-family="AvenirNext-Medium" font-size="29.0" fill="#838686" transform="matrix(1.00, 0.00, -0.00, -1.00, 366.1, 354.0)">e</text><text xml:space="preserve" font-family="AvenirNext-Medium" font-size="29.0" fill="#838686" transform="matrix(1.00, 0.00, -0.00, -1.00, 382.7, 354.0)">w</text><text xml:space="preserve" font-family="AvenirNext-Medium" font-size="29.0" fill="#838686" transform="matrix(1.00, 0.00, -0.00, -1.00, 405.1, 354.0)">o</text><text xml:space="preserve" font-family="AvenirNext-Medium" font-size="29.0" fill="#838686" transform="matrix(1.00, 0.00, -0.00, -1.00, 422.8, 354.0)">r</text><text xml:space="preserve" font-family="AvenirNext-Medium" font-size="29.0" fill="#838686" transform="matrix(1.00, 0.00, -0.00, -1.00, 433.3, 354.0)">k</text><text xml:space="preserve" font-family="AvenirNext-Medium" font-size="29.0" fill="#838686" transform="matrix(1.00, 0.00, -0.00, -1.00, 448.6, 354.0)"> </text><text xml:space="preserve" font-family="LucidaGrande" font-size="30.4" fill="#34A4DA" transform="matrix(1.00, 0.00, -0.00, -1.00, 71.0, 296.9)">▸</text><text xml:space="preserve" font-family="AvenirNext-Medium" font-size="29.0" fill="#838686" transform="matrix(1.00, 0.00, -0.00, -1.00, 106.0, 299.0)">G</text><text xml:space="preserve" font-family="AvenirNext-Medium" font-size="29.0" fill="#838686" transform="matrix(1.00, 0.00, -0.00, -1.00, 128.6, 299.0)">r</text><text xml:space="preserve" font-family="AvenirNext-Medium" font-size="29.0" fill="#838686" transform="matrix(1.00, 0.00, -0.00, -1.00, 138.5, 299.0)">o</text><text xml:space="preserve" font-family="AvenirNext-Medium" font-size="29.0" fill="#838686" transform="matrix(1.00, 0.00, -0.00, -1.00, 156.2, 299.0)">w</text><text xml:space="preserve" font-family="AvenirNext-Medium" font-size="29.0" fill="#838686" transform="matrix(1.00, 0.00, -0.00, -1.00, 178.6, 299.0)">i</text><text xml:space="preserve" font-family="AvenirNext-Medium" font-size="29.0" fill="#838686" transform="matrix(1.00, 0.00, -0.00, -1.00, 186.2, 299.0)">n</text><text xml:space="preserve" font-family="AvenirNext-Medium" font-size="29.0" fill="#838686" transform="matrix(1.00, 0.00, -0.00, -1.00, 203.0, 299.0)">g</text><text xml:space="preserve" font-family="AvenirNext-Medium" font-size="29.0" fill="#838686" transform="matrix(1.00, 0.00, -0.00, -1.00, 221.4, 299.0)"> </text><text xml:space="preserve" font-family="AvenirNext-Medium" font-size="29.0" fill="#838686" transform="matrix(1.00, 0.00, -0.00, -1.00, 228.6, 299.0)">l</text><text xml:space="preserve" font-family="AvenirNext-Medium" font-size="29.0" fill="#838686" transform="matrix(1.00, 0.00, -0.00, -1.00, 236.2, 299.0)">i</text><text xml:space="preserve" font-family="AvenirNext-Medium" font-size="29.0" fill="#838686" transform="matrix(1.00, 0.00, -0.00, -1.00, 243.7, 299.0)">b</text><text xml:space="preserve" font-family="AvenirNext-Medium" font-size="29.0" fill="#838686" transform="matrix(1.00, 0.00, -0.00, -1.00, 262.1, 299.0)">r</text><text xml:space="preserve" font-family="AvenirNext-Medium" font-size="29.0" fill="#838686" transform="matrix(1.00, 0.00, -0.00, -1.00, 272.2, 299.0)">a</text><text xml:space="preserve" font-family="AvenirNext-Medium" font-size="29.0" fill="#838686" transform="matrix(1.00, 0.00, -0.00, -1.00, 287.9, 299.0)">r</text><text xml:space="preserve" font-family="AvenirNext-Medium" font-size="29.0" fill="#838686" transform="matrix(1.00, 0.00, -0.00, -1.00, 298.4, 299.0)">y</text><text xml:space="preserve" font-family="AvenirNext-Medium" font-size="29.0" fill="#838686" transform="matrix(1.00, 0.00, -0.00, -1.00, 313.1, 299.0)"> </text><text xml:space="preserve" font-family="AvenirNext-Medium" font-size="29.0" fill="#838686" transform="matrix(1.00, 0.00, -0.00, -1.00, 320.3, 299.0)">o</text><text xml:space="preserve" font-family="AvenirNext-Medium" font-size="29.0" fill="#838686" transform="matrix(1.00, 0.00, -0.00, -1.00, 338.0, 299.0)">f</text><text xml:space="preserve" font-family="AvenirNext-Medium" font-size="29.0" fill="#838686" transform="matrix(1.00, 0.00, -0.00, -1.00, 347.7, 299.0)"> </text><text xml:space="preserve" font-family="AvenirNext-Medium" font-size="29.0" fill="#838686" transform="matrix(1.00, 0.00, -0.00, -1.00, 354.9, 299.0)">d</text><text xml:space="preserve" font-family="AvenirNext-Medium" font-size="29.0" fill="#838686" transform="matrix(1.00, 0.00, -0.00, -1.00, 373.4, 299.0)">a</text><text xml:space="preserve" font-family="AvenirNext-Medium" font-size="29.0" fill="#838686" transform="matrix(1.00, 0.00, -0.00, -1.00, 388.8, 299.0)">t</text><text xml:space="preserve" font-family="AvenirNext-Medium" font-size="29.0" fill="#838686" transform="matrix(1.00, 0.00, -0.00, -1.00, 398.3, 299.0)">a</text><text xml:space="preserve" font-family="AvenirNext-Medium" font-size="29.0" fill="#838686" transform="matrix(1.00, 0.00, -0.00, -1.00, 414.0, 299.0)"> </text><text xml:space="preserve" font-family="AvenirNext-Medium" font-size="29.0" fill="#838686" transform="matrix(1.00, 0.00, -0.00, -1.00, 421.3, 299.0)">v</text><text xml:space="preserve" font-family="AvenirNext-Medium" font-size="29.0" fill="#838686" transform="matrix(1.00, 0.00, -0.00, -1.00, 435.9, 299.0)">i</text><text xml:space="preserve" font-family="AvenirNext-Medium" font-size="29.0" fill="#838686" transform="matrix(1.00, 0.00, -0.00, -1.00, 443.4, 299.0)">s</text><text xml:space="preserve" font-family="AvenirNext-Medium" font-size="29.0" fill="#838686" transform="matrix(1.00, 0.00, -0.00, -1.00, 456.3, 299.0)">u</text><text xml:space="preserve" font-family="AvenirNext-Medium" font-size="29.0" fill="#838686" transform="matrix(1.00, 0.00, -0.00, -1.00, 473.2, 299.0)">a</text><text xml:space="preserve" font-family="AvenirNext-Medium" font-size="29.0" fill="#838686" transform="matrix(1.00, 0.00, -0.00, -1.00, 488.9, 299.0)">l</text><text xml:space="preserve" font-family="AvenirNext-Medium" font-size="29.0" fill="#838686" transform="matrix(1.00, 0.00, -0.00, -1.00, 496.4, 299.0)">i</text><text xml:space="preserve" font-family="AvenirNext-Medium" font-size="29.0" fill="#838686" transform="matrix(1.00, 0.00, -0.00, -1.00, 503.9, 299.0)">z</text><text xml:space="preserve" font-family="AvenirNext-Medium" font-size="29.0" fill="#838686" transform="matrix(1.00, 0.00, -0.00, -1.00, 517.3, 299.0)">a</text><text xml:space="preserve" font-family="AvenirNext-Medium" font-size="29.0" fill="#838686" transform="matrix(1.00, 0.00, -0.00, -1.00, 532.8, 299.0)">t</text><text xml:space="preserve" font-family="AvenirNext-Medium" font-size="29.0" fill="#838686" transform="matrix(1.00, 0.00, -0.00, -1.00, 542.3, 299.0)">i</text><text xml:space="preserve" font-family="AvenirNext-Medium" font-size="29.0" fill="#838686" transform="matrix(1.00, 0.00, -0.00, -1.00, 549.8, 299.0)">o</text><text xml:space="preserve" font-family="AvenirNext-Medium" font-size="29.0" fill="#838686" transform="matrix(1.00, 0.00, -0.00, -1.00, 567.5, 299.0)">n</text><text xml:space="preserve" font-family="AvenirNext-Medium" font-size="29.0" fill="#838686" transform="matrix(1.00, 0.00, -0.00, -1.00, 584.4, 299.0)"> </text><text xml:space="preserve" font-family="AvenirNext-Medium" font-size="29.0" fill="#838686" transform="matrix(1.00, 0.00, -0.00, -1.00, 591.6, 299.0)">a</text><text xml:space="preserve" font-family="AvenirNext-Medium" font-size="29.0" fill="#838686" transform="matrix(1.00, 0.00, -0.00, -1.00, 607.4, 299.0)">n</text><text xml:space="preserve" font-family="AvenirNext-Medium" font-size="29.0" fill="#838686" transform="matrix(1.00, 0.00, -0.00, -1.00, 624.2, 299.0)">d</text><text xml:space="preserve" font-family="AvenirNext-Medium" font-size="29.0" fill="#838686" transform="matrix(1.00, 0.00, -0.00, -1.00, 642.6, 299.0)"> </text><text xml:space="preserve" font-family="AvenirNext-Medium" font-size="29.0" fill="#838686" transform="matrix(1.00, 0.00, -0.00, -1.00, 649.9, 299.0)">m</text><text xml:space="preserve" font-family="AvenirNext-Medium" font-size="29.0" fill="#838686" transform="matrix(1.00, 0.00, -0.00, -1.00, 675.6, 299.0)">a</text><text xml:space="preserve" font-family="AvenirNext-Medium" font-size="29.0" fill="#838686" transform="matrix(1.00, 0.00, -0.00, -1.00, 691.3, 299.0)">n</text><text xml:space="preserve" font-family="AvenirNext-Medium" font-size="29.0" fill="#838686" transform="matrix(1.00, 0.00, -0.00, -1.00, 708.2, 299.0)">i</text><text xml:space="preserve" font-family="AvenirNext-Medium" font-size="29.0" fill="#838686" transform="matrix(1.00, 0.00, -0.00, -1.00, 715.7, 299.0)">p</text><text xml:space="preserve" font-family="AvenirNext-Medium" font-size="29.0" fill="#838686" transform="matrix(1.00, 0.00, -0.00, -1.00, 734.1, 299.0)">u</text><text xml:space="preserve" font-family="AvenirNext-Medium" font-size="29.0" fill="#838686" transform="matrix(1.00, 0.00, -0.00, -1.00, 751.0, 299.0)">l</text><text xml:space="preserve" font-family="AvenirNext-Medium" font-size="29.0" fill="#838686" transform="matrix(1.00, 0.00, -0.00, -1.00, 758.5, 299.0)">a</text><text xml:space="preserve" font-family="AvenirNext-Medium" font-size="29.0" fill="#838686" transform="matrix(1.00, 0.00, -0.00, -1.00, 774.0, 299.0)">t</text><text xml:space="preserve" font-family="AvenirNext-Medium" font-size="29.0" fill="#838686" transform="matrix(1.00, 0.00, -0.00, -1.00, 783.5, 299.0)">i</text><text xml:space="preserve" font-family="AvenirNext-Medium" font-size="29.0" fill="#838686" transform="matrix(1.00, 0.00, -0.00, -1.00, 791.0, 299.0)">o</text><text xml:space="preserve" font-family="AvenirNext-Medium" font-size="29.0" fill="#838686" transform="matrix(1.00, 0.00, -0.00, -1.00, 808.7, 299.0)">n</text><text xml:space="preserve" font-family="AvenirNext-Medium" font-size="29.0" fill="#838686" transform="matrix(1.00, 0.00, -0.00, -1.00, 825.6, 299.0)"> </text><text xml:space="preserve" font-family="AvenirNext-Medium" font-size="29.0" fill="#838686" transform="matrix(1.00, 0.00, -0.00, -1.00, 832.8, 299.0)">p</text><text xml:space="preserve" font-family="AvenirNext-Medium" font-size="29.0" fill="#838686" transform="matrix(1.00, 0.00, -0.00, -1.00, 851.2, 299.0)">a</text><text xml:space="preserve" font-family="AvenirNext-Medium" font-size="29.0" fill="#838686" transform="matrix(1.00, 0.00, -0.00, -1.00, 866.9, 299.0)">c</text><text xml:space="preserve" font-family="AvenirNext-Medium" font-size="29.0" fill="#838686" transform="matrix(1.00, 0.00, -0.00, -1.00, 881.3, 299.0)">k</text><text xml:space="preserve" font-family="AvenirNext-Medium" font-size="29.0" fill="#838686" transform="matrix(1.00, 0.00, -0.00, -1.00, 896.4, 299.0)">a</text><text xml:space="preserve" font-family="AvenirNext-Medium" font-size="29.0" fill="#838686" transform="matrix(1.00, 0.00, -0.00, -1.00, 912.1, 299.0)">g</text><text xml:space="preserve" font-family="AvenirNext-Medium" font-size="29.0" fill="#838686" transform="matrix(1.00, 0.00, -0.00, -1.00, 930.4, 299.0)">e</text><text xml:space="preserve" font-family="AvenirNext-Medium" font-size="29.0" fill="#838686" transform="matrix(1.00, 0.00, -0.00, -1.00, 947.0, 299.0)">s</text><text xml:space="preserve" font-family="AvenirNext-Medium" font-size="29.0" fill="#838686" transform="matrix(1.00, 0.00, -0.00, -1.00, 959.9, 299.0)"> </text><text xml:space="preserve" font-family="LucidaGrande" font-size="30.4" fill="#34A4DA" transform="matrix(1.00, 0.00, -0.00, -1.00, 71.0, 241.9)">▸</text><text xml:space="preserve" font-family="AvenirNext-Medium" font-size="29.0" fill="#838686" transform="matrix(1.00, 0.00, -0.00, -1.00, 106.0, 244.0)">G</text><text xml:space="preserve" font-family="AvenirNext-Medium" font-size="29.0" fill="#838686" transform="matrix(1.00, 0.00, -0.00, -1.00, 128.6, 244.0)">e</text><text xml:space="preserve" font-family="AvenirNext-Medium" font-size="29.0" fill="#838686" transform="matrix(1.00, 0.00, -0.00, -1.00, 145.2, 244.0)">n</text><text xml:space="preserve" font-family="AvenirNext-Medium" font-size="29.0" fill="#838686" transform="matrix(1.00, 0.00, -0.00, -1.00, 162.1, 244.0)">e</text><text xml:space="preserve" font-family="AvenirNext-Medium" font-size="29.0" fill="#838686" transform="matrix(1.00, 0.00, -0.00, -1.00, 178.7, 244.0)">r</text><text xml:space="preserve" font-family="AvenirNext-Medium" font-size="29.0" fill="#838686" transform="matrix(1.00, 0.00, -0.00, -1.00, 188.8, 244.0)">a</text><text xml:space="preserve" font-family="AvenirNext-Medium" font-size="29.0" fill="#838686" transform="matrix(1.00, 0.00, -0.00, -1.00, 204.5, 244.0)">l</text><text xml:space="preserve" font-family="AvenirNext-Medium" font-size="29.0" fill="#838686" transform="matrix(1.00, 0.00, -0.00, -1.00, 212.1, 244.0)"> </text><text xml:space="preserve" font-family="AvenirNext-Medium" font-size="29.0" fill="#838686" transform="matrix(1.00, 0.00, -0.00, -1.00, 219.3, 244.0)">p</text><text xml:space="preserve" font-family="AvenirNext-Medium" font-size="29.0" fill="#838686" transform="matrix(1.00, 0.00, -0.00, -1.00, 237.7, 244.0)">u</text><text xml:space="preserve" font-family="AvenirNext-Medium" font-size="29.0" fill="#838686" transform="matrix(1.00, 0.00, -0.00, -1.00, 254.6, 244.0)">r</text><text xml:space="preserve" font-family="AvenirNext-Medium" font-size="29.0" fill="#838686" transform="matrix(1.00, 0.00, -0.00, -1.00, 265.1, 244.0)">p</text><text xml:space="preserve" font-family="AvenirNext-Medium" font-size="29.0" fill="#838686" transform="matrix(1.00, 0.00, -0.00, -1.00, 283.5, 244.0)">o</text><text xml:space="preserve" font-family="AvenirNext-Medium" font-size="29.0" fill="#838686" transform="matrix(1.00, 0.00, -0.00, -1.00, 301.1, 244.0)">s</text><text xml:space="preserve" font-family="AvenirNext-Medium" font-size="29.0" fill="#838686" transform="matrix(1.00, 0.00, -0.00, -1.00, 314.0, 244.0)">e</text><text xml:space="preserve" font-family="AvenirNext-Medium" font-size="29.0" fill="#838686" transform="matrix(1.00, 0.00, -0.00, -1.00, 330.6, 244.0)"> </text><text xml:space="preserve" font-family="AvenirNext-Medium" font-size="29.0" fill="#838686" transform="matrix(1.00, 0.00, -0.00, -1.00, 337.9, 244.0)">l</text><text xml:space="preserve" font-family="AvenirNext-Medium" font-size="29.0" fill="#838686" transform="matrix(1.00, 0.00, -0.00, -1.00, 345.4, 244.0)">a</text><text xml:space="preserve" font-family="AvenirNext-Medium" font-size="29.0" fill="#838686" transform="matrix(1.00, 0.00, -0.00, -1.00, 361.1, 244.0)">n</text><text xml:space="preserve" font-family="AvenirNext-Medium" font-size="29.0" fill="#838686" transform="matrix(1.00, 0.00, -0.00, -1.00, 378.0, 244.0)">g</text><text xml:space="preserve" font-family="AvenirNext-Medium" font-size="29.0" fill="#838686" transform="matrix(1.00, 0.00, -0.00, -1.00, 396.3, 244.0)">u</text><text xml:space="preserve" font-family="AvenirNext-Medium" font-size="29.0" fill="#838686" transform="matrix(1.00, 0.00, -0.00, -1.00, 413.2, 244.0)">a</text><text xml:space="preserve" font-family="AvenirNext-Medium" font-size="29.0" fill="#838686" transform="matrix(1.00, 0.00, -0.00, -1.00, 428.9, 244.0)">g</text><text xml:space="preserve" font-family="AvenirNext-Medium" font-size="29.0" fill="#838686" transform="matrix(1.00, 0.00, -0.00, -1.00, 447.3, 244.0)">e</text></g></svg>