<?xml version="1.0" encoding="UTF-8" standalone="no"?><svg xmlns="http://www.w3.org/2000/svg" xmlns:xlink="http://www.w3.org/1999/xlink" clip-rule="evenodd" stroke-miterlimit="4.00" viewBox="0 0 1024 768"><desc>SVG generated by Keynote</desc><defs></defs><g transform="matrix(1.00, 0.00, -0.00, -1.00, 0.0, 768.0)"><path d="M 0.0 768.0 L 1024.0 768.0 L 1024.0 0.0 L 0.0 0.0 Z M 0.0 768.0 " fill="#212121"></path><path d="M 0.0 0.0 L 960.0 0.0 " fill="none" stroke="#A6AAA8" stroke-width="3.00" transform="matrix(1.00, 0.00, 0.00, -1.00, 32.0, 284.5)"></path><text xml:space="preserve" font-family="DINCondensed-Bold" font-weight="bold" font-size="102.0" fill="#34A4DA" transform="matrix(1.00, 0.00, -0.00, -1.00, 36.0, 186.0)">P</text><text xml:space="preserve" font-family="DINCondensed-Bold" font-weight="bold" font-size="102.0" fill="#34A4DA" transform="matrix(1.00, 0.00, -0.00, -1.00, 77.5, 186.0)">Y</text><text xml:space="preserve" font-family="DINCondensed-Bold" font-weight="bold" font-size="102.0" fill="#34A4DA" transform="matrix(1.00, 0.00, -0.00, -1.00, 117.1, 186.0)">T</text><text xml:space="preserve" font-family="DINCondensed-Bold" font-weight="bold" font-size="102.0" fill="#34A4DA" transform="matrix(1.00, 0.00, -0.00, -1.00, 151.0, 186.0)">H</text><text xml:space="preserve" font-family="DINCondensed-Bold" font-weight="bold" font-size="102.0" fill="#34A4DA" transform="matrix(1.00, 0.00, -0.00, -1.00, 194.4, 186.0)">O</text><text xml:space="preserve" font-family="DINCondensed-Bold" font-weight="bold" font-size="102.0" fill="#34A4DA" transform="matrix(1.00, 0.00, -0.00, -1.00, 237.9, 186.0)">N</text><text xml:space="preserve" font-family="DINCondensed-Bold" font-weight="bold" font-size="102.0" fill="#34A4DA" transform="matrix(1.00, 0.00, -0.00, -1.00, 283.1, 186.0)"> </text><text xml:space="preserve" font-family="DINCondensed-Bold" font-weight="bold" font-size="102.0" fill="#34A4DA" transform="matrix(1.00, 0.00, -0.00, -1.00, 302.1, 186.0)">F</text><text xml:space="preserve" font-family="DINCondensed-Bold" font-weight="bold" font-size="102.0" fill="#34A4DA" transform="matrix(1.00, 0.00, -0.00, -1.00, 339.9, 186.0)">O</text><text xml:space="preserve" font-family="DINCondensed-Bold" font-weight="bold" font-size="102.0" fill="#34A4DA" transform="matrix(1.00, 0.00, -0.00, -1.00, 383.3, 186.0)">R</text><text xml:space="preserve" font-family="DINCondensed-Bold" font-weight="bold" font-size="102.0" fill="#34A4DA" transform="matrix(1.00, 0.00, -0.00, -1.00, 426.8, 186.0)"> </text><text xml:space="preserve" font-family="DINCondensed-Bold" font-weight="bold" font-size="102.0" fill="#34A4DA" transform="matrix(1.00, 0.00, -0.00, -1.00, 445.7, 186.0)">D</text><text xml:space="preserve" font-family="DINCondensed-Bold" font-weight="bold" font-size="102.0" fill="#34A4DA" transform="matrix(1.00, 0.00, -0.00, -1.00, 488.0, 186.0)">A</text><text xml:space="preserve" font-family="DINCondensed-Bold" font-weight="bold" font-size="102.0" fill="#34A4DA" transform="matrix(1.00, 0.00, -0.00, -1.00, 523.9, 186.0)">T</text><text xml:space="preserve" font-family="DINCondensed-Bold" font-weight="bold" font-size="102.0" fill="#34A4DA" transform="matrix(1.00, 0.00, -0.00, -1.00, 552.1, 186.0)">A</text><text xml:space="preserve" font-family="DINCondensed-Bold" font-weight="bold" font-size="102.0" fill="#34A4DA" transform="matrix(1.00, 0.00, -0.00, -1.00, 593.6, 186.0)"> </text><text xml:space="preserve" font-family="DINCondensed-Bold" font-weight="bold" font-size="102.0" fill="#34A4DA" transform="matrix(1.00, 0.00, -0.00, -1.00, 36.0, 84.0)">V</text><text xml:space="preserve" font-family="DINCondensed-Bold" font-weight="bold" font-size="102.0" fill="#34A4DA" transform="matrix(1.00, 0.00, -0.00, -1.00, 77.5, 84.0)">I</text><text xml:space="preserve" font-family="DINCondensed-Bold" font-weight="bold" font-size="102.0" fill="#34A4DA" transform="matrix(1.00, 0.00, -0.00, -1.00, 98.3, 84.0)">S</text><text xml:space="preserve" font-family="DINCondensed-Bold" font-weight="bold" font-size="102.0" fill="#34A4DA" transform="matrix(1.00, 0.00, -0.00, -1.00, 139.7, 84.0)">U</text><text xml:space="preserve" font-family="DINCondensed-Bold" font-weight="bold" font-size="102.0" fill="#34A4DA" transform="matrix(1.00, 0.00, -0.00, -1.00, 182.0, 84.0)">A</text><text xml:space="preserve" font-family="DINCondensed-Bold" font-weight="bold" font-size="102.0" fill="#34A4DA" transform="matrix(1.00, 0.00, -0.00, -1.00, 223.5, 84.0)">L</text><text xml:space="preserve" font-family="DINCondensed-Bold" font-weight="bold" font-size="102.0" fill="#34A4DA" transform="matrix(1.00, 0.00, -0.00, -1.00, 261.2, 84.0)">I</text><text xml:space="preserve" font-family="DINCondensed-Bold" font-weight="bold" font-size="102.0" fill="#34A4DA" transform="matrix(1.00, 0.00, -0.00, -1.00, 282.0, 84.0)">Z</text><text xml:space="preserve" font-family="DINCondensed-Bold" font-weight="bold" font-size="102.0" fill="#34A4DA" transform="matrix(1.00, 0.00, -0.00, -1.00, 316.0, 84.0)">A</text><text xml:space="preserve" font-family="DINCondensed-Bold" font-weight="bold" font-size="102.0" fill="#34A4DA" transform="matrix(1.00, 0.00, -0.00, -1.00, 351.9, 84.0)">T</text><text xml:space="preserve" font-family="DINCondensed-Bold" font-weight="bold" font-size="102.0" fill="#34A4DA" transform="matrix(1.00, 0.00, -0.00, -1.00, 385.8, 84.0)">I</text><text xml:space="preserve" font-family="DINCondensed-Bold" font-weight="bold" font-size="102.0" fill="#34A4DA" transform="matrix(1.00, 0.00, -0.00, -1.00, 406.6, 84.0)">O</text><text xml:space="preserve" font-family="DINCondensed-Bold" font-weight="bold" font-size="102.0" fill="#34A4DA" transform="matrix(1.00, 0.00, -0.00, -1.00, 450.0, 84.0)">N</text><text xml:space="preserve" font-family="DINAlternate-Bold" font-weight="bold" font-size="54.0" fill="#A6AAA9" transform="matrix(1.00, 0.00, -0.00, -1.00, 36.0, 375.0)">S</text><text xml:space="preserve" font-family="DINAlternate-Bold" font-weight="bold" font-size="54.0" fill="#A6AAA9" transform="matrix(1.00, 0.00, -0.00, -1.00, 67.0, 375.0)">I</text><text xml:space="preserve" font-family="DINAlternate-Bold" font-weight="bold" font-size="54.0" fill="#A6AAA9" transform="matrix(1.00, 0.00, -0.00, -1.00, 80.9, 375.0)">E</text><text xml:space="preserve" font-family="DINAlternate-Bold" font-weight="bold" font-size="54.0" fill="#A6AAA9" transform="matrix(1.00, 0.00, -0.00, -1.00, 110.9, 375.0)">R</text><text xml:space="preserve" font-family="DINAlternate-Bold" font-weight="bold" font-size="54.0" fill="#A6AAA9" transform="matrix(1.00, 0.00, -0.00, -1.00, 143.9, 375.0)">R</text><text xml:space="preserve" font-family="DINAlternate-Bold" font-weight="bold" font-size="54.0" fill="#A6AAA9" transform="matrix(1.00, 0.00, -0.00, -1.00, 176.8, 375.0)">A</text><text xml:space="preserve" font-family="DINAlternate-Bold" font-weight="bold" font-size="54.0" fill="#A6AAA9" transform="matrix(1.00, 0.00, -0.00, -1.00, 209.7, 375.0)"> </text><text xml:space="preserve" font-family="DINAlternate-Bold" font-weight="bold" font-size="54.0" fill="#A6AAA9" transform="matrix(1.00, 0.00, -0.00, -1.00, 222.6, 375.0)">G</text><text xml:space="preserve" font-family="DINAlternate-Bold" font-weight="bold" font-size="54.0" fill="#A6AAA9" transform="matrix(1.00, 0.00, -0.00, -1.00, 255.5, 375.0)">R</text><text xml:space="preserve" font-family="DINAlternate-Bold" font-weight="bold" font-size="54.0" fill="#A6AAA9" transform="matrix(1.00, 0.00, -0.00, -1.00, 288.5, 375.0)">E</text><text xml:space="preserve" font-family="DINAlternate-Bold" font-weight="bold" font-size="54.0" fill="#A6AAA9" transform="matrix(1.00, 0.00, -0.00, -1.00, 318.5, 375.0)">G</text><text xml:space="preserve" font-family="DINAlternate-Bold" font-weight="bold" font-size="54.0" fill="#A6AAA9" transform="matrix(1.00, 0.00, -0.00, -1.00, 351.4, 375.0)">G</text><text xml:space="preserve" font-family="DINAlternate-Bold" font-weight="bold" font-size="54.0" fill="#A6AAA9" transform="matrix(1.00, 0.00, -0.00, -1.00, 384.4, 375.0)"> </text><text xml:space="preserve" font-family="ArialMT" font-size="21.0" fill="#A6AAA9" transform="matrix(1.00, 0.00, -0.00, -1.00, 36.0, 334.0)">s</text><text xml:space="preserve" font-family="ArialMT" font-size="21.0" fill="#A6AAA9" transform="matrix(1.00, 0.00, -0.00, -1.00, 46.5, 334.0)">i</text><text xml:space="preserve" font-family="ArialMT" font-size="21.0" fill="#A6AAA9" transform="matrix(1.00, 0.00, -0.00, -1.00, 51.2, 334.0)">e</text><text xml:space="preserve" font-family="ArialMT" font-size="21.0" fill="#A6AAA9" transform="matrix(1.00, 0.00, -0.00, -1.00, 62.9, 334.0)">r</text><text xml:space="preserve" font-family="ArialMT" font-size="21.0" fill="#A6AAA9" transform="matrix(1.00, 0.00, -0.00, -1.00, 69.8, 334.0)">r</text><text xml:space="preserve" font-family="ArialMT" font-size="21.0" fill="#A6AAA9" transform="matrix(1.00, 0.00, -0.00, -1.00, 76.8, 334.0)">a</text><text xml:space="preserve" font-family="ArialMT" font-size="21.0" fill="#A6AAA9" transform="matrix(1.00, 0.00, -0.00, -1.00, 88.5, 334.0)">g</text><text xml:space="preserve" font-family="ArialMT" font-size="21.0" fill="#A6AAA9" transform="matrix(1.00, 0.00, -0.00, -1.00, 100.2, 334.0)">r</text><text xml:space="preserve" font-family="ArialMT" font-size="21.0" fill="#A6AAA9" transform="matrix(1.00, 0.00, -0.00, -1.00, 107.2, 334.0)">e</text><text xml:space="preserve" font-family="ArialMT" font-size="21.0" fill="#A6AAA9" transform="matrix(1.00, 0.00, -0.00, -1.00, 118.9, 334.0)">g</text><text xml:space="preserve" font-family="ArialMT" font-size="21.0" fill="#A6AAA9" transform="matrix(1.00, 0.00, -0.00, -1.00, 130.6, 334.0)">g</text><text xml:space="preserve" font-family="ArialMT" font-size="21.0" fill="#A6AAA9" transform="matrix(1.00, 0.00, -0.00, -1.00, 142.2, 334.0)">@</text><text xml:space="preserve" font-family="ArialMT" font-size="21.0" fill="#A6AAA9" transform="matrix(1.00, 0.00, -0.00, -1.00, 163.6, 334.0)">G</text><text xml:space="preserve" font-family="ArialMT" font-size="21.0" fill="#A6AAA9" transform="matrix(1.00, 0.00, -0.00, -1.00, 179.9, 334.0)">m</text><text xml:space="preserve" font-family="ArialMT" font-size="21.0" fill="#A6AAA9" transform="matrix(1.00, 0.00, -0.00, -1.00, 197.4, 334.0)">a</text><text xml:space="preserve" font-family="ArialMT" font-size="21.0" fill="#A6AAA9" transform="matrix(1.00, 0.00, -0.00, -1.00, 209.1, 334.0)">i</text><text xml:space="preserve" font-family="ArialMT" font-size="21.0" fill="#A6AAA9" transform="matrix(1.00, 0.00, -0.00, -1.00, 213.7, 334.0)">l</text><text xml:space="preserve" font-family="ArialMT" font-size="21.0" fill="#A6AAA9" transform="matrix(1.00, 0.00, -0.00, -1.00, 218.4, 334.0)">.</text><text xml:space="preserve" font-family="ArialMT" font-size="21.0" fill="#A6AAA9" transform="matrix(1.00, 0.00, -0.00, -1.00, 224.2, 334.0)">c</text><text xml:space="preserve" font-family="ArialMT" font-size="21.0" fill="#A6AAA9" transform="matrix(1.00, 0.00, -0.00, -1.00, 234.7, 334.0)">o</text><text xml:space="preserve" font-family="ArialMT" font-size="21.0" fill="#A6AAA9" transform="matrix(1.00, 0.00, -0.00, -1.00, 246.4, 334.0)">m</text><text xml:space="preserve" font-family="ArialMT" font-size="21.0" fill="#A6AAA9" transform="matrix(1.00, 0.00, -0.00, -1.00, 263.9, 334.0)"> </text><text xml:space="preserve" font-family="ArialMT" font-size="21.0" fill="#A6AAA9" transform="matrix(1.00, 0.00, -0.00, -1.00, 269.8, 334.0)"> </text><text xml:space="preserve" font-family="ArialMT" font-size="21.0" fill="#A6AAA9" transform="matrix(1.00, 0.00, -0.00, -1.00, 36.0, 298.0)">C</text><text xml:space="preserve" font-family="ArialMT" font-size="21.0" fill="#A6AAA9" transform="matrix(1.00, 0.00, -0.00, -1.00, 51.2, 298.0)">o</text><text xml:space="preserve" font-family="ArialMT" font-size="21.0" fill="#A6AAA9" transform="matrix(1.00, 0.00, -0.00, -1.00, 62.9, 298.0)">d</text><text xml:space="preserve" font-family="ArialMT" font-size="21.0" fill="#A6AAA9" transform="matrix(1.00, 0.00, -0.00, -1.00, 74.5, 298.0)">e</text><text xml:space="preserve" font-family="ArialMT" font-size="21.0" fill="#A6AAA9" transform="matrix(1.00, 0.00, -0.00, -1.00, 86.2, 298.0)"> </text><text xml:space="preserve" font-family="ArialMT" font-size="21.0" fill="#A6AAA9" transform="matrix(1.00, 0.00, -0.00, -1.00, 92.1, 298.0)">a</text><text xml:space="preserve" font-family="ArialMT" font-size="21.0" fill="#A6AAA9" transform="matrix(1.00, 0.00, -0.00, -1.00, 103.7, 298.0)">n</text><text xml:space="preserve" font-family="ArialMT" font-size="21.0" fill="#A6AAA9" transform="matrix(1.00, 0.00, -0.00, -1.00, 115.4, 298.0)">d</text><text xml:space="preserve" font-family="ArialMT" font-size="21.0" fill="#A6AAA9" transform="matrix(1.00, 0.00, -0.00, -1.00, 127.1, 298.0)"> </text><text xml:space="preserve" font-family="ArialMT" font-size="21.0" fill="#A6AAA9" transform="matrix(1.00, 0.00, -0.00, -1.00, 132.9, 298.0)">S</text><text xml:space="preserve" font-family="ArialMT" font-size="21.0" fill="#A6AAA9" transform="matrix(1.00, 0.00, -0.00, -1.00, 146.9, 298.0)">l</text><text xml:space="preserve" font-family="ArialMT" font-size="21.0" fill="#A6AAA9" transform="matrix(1.00, 0.00, -0.00, -1.00, 151.6, 298.0)">i</text><text xml:space="preserve" font-family="ArialMT" font-size="21.0" fill="#A6AAA9" transform="matrix(1.00, 0.00, -0.00, -1.00, 156.3, 298.0)">d</text><text xml:space="preserve" font-family="ArialMT" font-size="21.0" fill="#A6AAA9" transform="matrix(1.00, 0.00, -0.00, -1.00, 168.0, 298.0)">e</text><text xml:space="preserve" font-family="ArialMT" font-size="21.0" fill="#A6AAA9" transform="matrix(1.00, 0.00, -0.00, -1.00, 179.6, 298.0)">s</text><text xml:space="preserve" font-family="ArialMT" font-size="21.0" fill="#A6AAA9" transform="matrix(1.00, 0.00, -0.00, -1.00, 190.1, 298.0)">:</text><text xml:space="preserve" font-family="ArialMT" font-size="21.0" fill="#A6AAA9" transform="matrix(1.00, 0.00, -0.00, -1.00, 196.0, 298.0)"> </text><text xml:space="preserve" font-family="ArialMT" font-size="21.0" fill="#34A4DA" transform="matrix(1.00, 0.00, -0.00, -1.00, 201.8, 298.0)">h</text><text xml:space="preserve" font-family="ArialMT" font-size="21.0" fill="#34A4DA" transform="matrix(1.00, 0.00, -0.00, -1.00, 213.5, 298.0)">t</text><text xml:space="preserve" font-family="ArialMT" font-size="21.0" fill="#34A4DA" transform="matrix(1.00, 0.00, -0.00, -1.00, 219.3, 298.0)">t</text><text xml:space="preserve" font-family="ArialMT" font-size="21.0" fill="#34A4DA" transform="matrix(1.00, 0.00, -0.00, -1.00, 225.1, 298.0)">p</text><text xml:space="preserve" font-family="ArialMT" font-size="21.0" fill="#34A4DA" transform="matrix(1.00, 0.00, -0.00, -1.00, 236.8, 298.0)">s</text><text xml:space="preserve" font-family="ArialMT" font-size="21.0" fill="#34A4DA" transform="matrix(1.00, 0.00, -0.00, -1.00, 247.3, 298.0)">:</text><text xml:space="preserve" font-family="ArialMT" font-size="21.0" fill="#34A4DA" transform="matrix(1.00, 0.00, -0.00, -1.00, 253.1, 298.0)">/</text><text xml:space="preserve" font-family="ArialMT" font-size="21.0" fill="#34A4DA" transform="matrix(1.00, 0.00, -0.00, -1.00, 259.0, 298.0)">/</text><text xml:space="preserve" font-family="ArialMT" font-size="21.0" fill="#34A4DA" transform="matrix(1.00, 0.00, -0.00, -1.00, 264.8, 298.0)">g</text><text xml:space="preserve" font-family="ArialMT" font-size="21.0" fill="#34A4DA" transform="matrix(1.00, 0.00, -0.00, -1.00, 276.5, 298.0)">i</text><text xml:space="preserve" font-family="ArialMT" font-size="21.0" fill="#34A4DA" transform="matrix(1.00, 0.00, -0.00, -1.00, 281.1, 298.0)">t</text><text xml:space="preserve" font-family="ArialMT" font-size="21.0" fill="#34A4DA" transform="matrix(1.00, 0.00, -0.00, -1.00, 287.0, 298.0)">h</text><text xml:space="preserve" font-family="ArialMT" font-size="21.0" fill="#34A4DA" transform="matrix(1.00, 0.00, -0.00, -1.00, 298.7, 298.0)">u</text><text xml:space="preserve" font-family="ArialMT" font-size="21.0" fill="#34A4DA" transform="matrix(1.00, 0.00, -0.00, -1.00, 310.3, 298.0)">b</text><text xml:space="preserve" font-family="ArialMT" font-size="21.0" fill="#34A4DA" transform="matrix(1.00, 0.00, -0.00, -1.00, 322.0, 298.0)">.</text><text xml:space="preserve" font-family="ArialMT" font-size="21.0" fill="#34A4DA" transform="matrix(1.00, 0.00, -0.00, -1.00, 327.9, 298.0)">c</text><text xml:space="preserve" font-family="ArialMT" font-size="21.0" fill="#34A4DA" transform="matrix(1.00, 0.00, -0.00, -1.00, 338.4, 298.0)">o</text><text xml:space="preserve" font-family="ArialMT" font-size="21.0" fill="#34A4DA" transform="matrix(1.00, 0.00, -0.00, -1.00, 350.0, 298.0)">m</text><text xml:space="preserve" font-family="ArialMT" font-size="21.0" fill="#34A4DA" transform="matrix(1.00, 0.00, -0.00, -1.00, 367.5, 298.0)">/</text><text xml:space="preserve" font-family="ArialMT" font-size="21.0" fill="#34A4DA" transform="matrix(1.00, 0.00, -0.00, -1.00, 373.4, 298.0)">L</text><text xml:space="preserve" font-family="ArialMT" font-size="21.0" fill="#34A4DA" transform="matrix(1.00, 0.00, -0.00, -1.00, 385.0, 298.0)">i</text><text xml:space="preserve" font-family="ArialMT" font-size="21.0" fill="#34A4DA" transform="matrix(1.00, 0.00, -0.00, -1.00, 389.7, 298.0)">f</text><text xml:space="preserve" font-family="ArialMT" font-size="21.0" fill="#34A4DA" transform="matrix(1.00, 0.00, -0.00, -1.00, 395.5, 298.0)">e</text><text xml:space="preserve" font-family="ArialMT" font-size="21.0" fill="#34A4DA" transform="matrix(1.00, 0.00, -0.00, -1.00, 407.2, 298.0)">l</text><text xml:space="preserve" font-family="ArialMT" font-size="21.0" fill="#34A4DA" transform="matrix(1.00, 0.00, -0.00, -1.00, 411.9, 298.0)">o</text><text xml:space="preserve" font-family="ArialMT" font-size="21.0" fill="#34A4DA" transform="matrix(1.00, 0.00, -0.00, -1.00, 423.6, 298.0)">n</text><text xml:space="preserve" font-family="ArialMT" font-size="21.0" fill="#34A4DA" transform="matrix(1.00, 0.00, -0.00, -1.00, 435.3, 298.0)">g</text><text xml:space="preserve" font-family="ArialMT" font-size="21.0" fill="#34A4DA" transform="matrix(1.00, 0.00, -0.00, -1.00, 447.0, 298.0)">L</text><text xml:space="preserve" font-family="ArialMT" font-size="21.0" fill="#34A4DA" transform="matrix(1.00, 0.00, -0.00, -1.00, 458.6, 298.0)">e</text><text xml:space="preserve" font-family="ArialMT" font-size="21.0" fill="#34A4DA" transform="matrix(1.00, 0.00, -0.00, -1.00, 470.3, 298.0)">a</text><text xml:space="preserve" font-family="ArialMT" font-size="21.0" fill="#34A4DA" transform="matrix(1.00, 0.00, -0.00, -1.00, 482.0, 298.0)">r</text><text xml:space="preserve" font-family="ArialMT" font-size="21.0" fill="#34A4DA" transform="matrix(1.00, 0.00, -0.00, -1.00, 489.0, 298.0)">n</text><text xml:space="preserve" font-family="ArialMT" font-size="21.0" fill="#34A4DA" transform="matrix(1.00, 0.00, -0.00, -1.00, 500.7, 298.0)">e</text><text xml:space="preserve" font-family="ArialMT" font-size="21.0" fill="#34A4DA" transform="matrix(1.00, 0.00, -0.00, -1.00, 512.4, 298.0)">r</text><text xml:space="preserve" font-family="ArialMT" font-size="21.0" fill="#34A4DA" transform="matrix(1.00, 0.00, -0.00, -1.00, 519.4, 298.0)">1</text><text xml:space="preserve" font-family="ArialMT" font-size="21.0" fill="#34A4DA" transform="matrix(1.00, 0.00, -0.00, -1.00, 531.0, 298.0)">3</text><text xml:space="preserve" font-family="ArialMT" font-size="21.0" fill="#34A4DA" transform="matrix(1.00, 0.00, -0.00, -1.00, 542.7, 298.0)">/</text><text xml:space="preserve" font-family="ArialMT" font-size="21.0" fill="#34A4DA" transform="matrix(1.00, 0.00, -0.00, -1.00, 548.6, 298.0)">p</text><text xml:space="preserve" font-family="ArialMT" font-size="21.0" fill="#34A4DA" transform="matrix(1.00, 0.00, -0.00, -1.00, 560.2, 298.0)">y</text><text xml:space="preserve" font-family="ArialMT" font-size="21.0" fill="#34A4DA" transform="matrix(1.00, 0.00, -0.00, -1.00, 570.7, 298.0)">t</text><text xml:space="preserve" font-family="ArialMT" font-size="21.0" fill="#34A4DA" transform="matrix(1.00, 0.00, -0.00, -1.00, 576.6, 298.0)">h</text><text xml:space="preserve" font-family="ArialMT" font-size="21.0" fill="#34A4DA" transform="matrix(1.00, 0.00, -0.00, -1.00, 588.2, 298.0)">o</text><text xml:space="preserve" font-family="ArialMT" font-size="21.0" fill="#34A4DA" transform="matrix(1.00, 0.00, -0.00, -1.00, 599.9, 298.0)">n</text><text xml:space="preserve" font-family="ArialMT" font-size="21.0" fill="#34A4DA" transform="matrix(1.00, 0.00, -0.00, -1.00, 611.6, 298.0)">_</text><text xml:space="preserve" font-family="ArialMT" font-size="21.0" fill="#34A4DA" transform="matrix(1.00, 0.00, -0.00, -1.00, 623.3, 298.0)">d</text><text xml:space="preserve" font-family="ArialMT" font-size="21.0" fill="#34A4DA" transform="matrix(1.00, 0.00, -0.00, -1.00, 635.0, 298.0)">a</text><text xml:space="preserve" font-family="ArialMT" font-size="21.0" fill="#34A4DA" transform="matrix(1.00, 0.00, -0.00, -1.00, 646.7, 298.0)">t</text><text xml:space="preserve" font-family="ArialMT" font-size="21.0" fill="#34A4DA" transform="matrix(1.00, 0.00, -0.00, -1.00, 652.5, 298.0)">a</text><text xml:space="preserve" font-family="ArialMT" font-size="21.0" fill="#34A4DA" transform="matrix(1.00, 0.00, -0.00, -1.00, 664.2, 298.0)">_</text><text xml:space="preserve" font-family="ArialMT" font-size="21.0" fill="#34A4DA" transform="matrix(1.00, 0.00, -0.00, -1.00, 675.9, 298.0)">v</text><text xml:space="preserve" font-family="ArialMT" font-size="21.0" fill="#34A4DA" transform="matrix(1.00, 0.00, -0.00, -1.00, 686.4, 298.0)">i</text><text xml:space="preserve" font-family="ArialMT" font-size="21.0" fill="#34A4DA" transform="matrix(1.00, 0.00, -0.00, -1.00, 691.0, 298.0)">s</text><text xml:space="preserve" font-family="ArialMT" font-size="21.0" fill="#34A4DA" transform="matrix(1.00, 0.00, -0.00, -1.00, 701.5, 298.0)">u</text><text xml:space="preserve" font-family="ArialMT" font-size="21.0" fill="#34A4DA" transform="matrix(1.00, 0.00, -0.00, -1.00, 713.2, 298.0)">a</text><text xml:space="preserve" font-family="ArialMT" font-size="21.0" fill="#34A4DA" transform="matrix(1.00, 0.00, -0.00, -1.00, 724.9, 298.0)">l</text><text xml:space="preserve" font-family="ArialMT" font-size="21.0" fill="#34A4DA" transform="matrix(1.00, 0.00, -0.00, -1.00, 729.6, 298.0)">i</text><text xml:space="preserve" font-family="ArialMT" font-size="21.0" fill="#34A4DA" transform="matrix(1.00, 0.00, -0.00, -1.00, 734.2, 298.0)">z</text><text xml:space="preserve" font-family="ArialMT" font-size="21.0" fill="#34A4DA" transform="matrix(1.00, 0.00, -0.00, -1.00, 744.7, 298.0)">a</text><text xml:space="preserve" font-family="ArialMT" font-size="21.0" fill="#34A4DA" transform="matrix(1.00, 0.00, -0.00, -1.00, 756.4, 298.0)">t</text><text xml:space="preserve" font-family="ArialMT" font-size="21.0" fill="#34A4DA" transform="matrix(1.00, 0.00, -0.00, -1.00, 762.3, 298.0)">i</text><text xml:space="preserve" font-family="ArialMT" font-size="21.0" fill="#34A4DA" transform="matrix(1.00, 0.00, -0.00, -1.00, 766.9, 298.0)">o</text><text xml:space="preserve" font-family="ArialMT" font-size="21.0" fill="#34A4DA" transform="matrix(1.00, 0.00, -0.00, -1.00, 778.6, 298.0)">n</text><text xml:space="preserve" font-family="ArialMT" font-size="21.0" fill="#34A4DA" transform="matrix(1.00, 0.00, -0.00, -1.00, 790.3, 298.0)">.</text><text xml:space="preserve" font-family="ArialMT" font-size="21.0" fill="#34A4DA" transform="matrix(1.00, 0.00, -0.00, -1.00, 796.1, 298.0)">g</text><text xml:space="preserve" font-family="ArialMT" font-size="21.0" fill="#34A4DA" transform="matrix(1.00, 0.00, -0.00, -1.00, 807.8, 298.0)">i</text><text xml:space="preserve" font-family="ArialMT" font-size="21.0" fill="#34A4DA" transform="matrix(1.00, 0.00, -0.00, -1.00, 812.5, 298.0)">t</text><g><clipPath id="clip-0"><path d="M 200.8 294.1 L 818.2 294.1 L 818.2 297.6 L 200.8 297.6 Z M 200.8 294.1 "></path></clipPath><g clip-path="url(#clip-0)"><path d="M 169.8 136.1 L 786.2 136.1 " fill="none" stroke="#34A4DA" stroke-width="1.54" stroke-miterlimit="0.00" transform="matrix(1.00, 0.00, 0.00, -1.00, 32.0, 432.0)"></path></g></g><g><clipPath id="clip-1"><path d="M 350.0 640.0 L 670.0 640.0 L 670.0 427.0 L 350.0 427.0 Z M 349.9 640.3 "></path></clipPath><g clip-path="url(#clip-1)"><image xlink:href="B0DD103CE0EF2E26A94AD886AA631047.jpeg" width="321.00" height="213.00" transform="matrix(1.00, 0.00, -0.00, -1.00, 350.0, 640.0)"></image></g></g><image xlink:href="CFD88F29E84DEB3F3995EBAD8AEA6B8A.png" width="302.00" height="199.00" transform="matrix(1.00, 0.00, -0.00, 1.00, 360.9, 436.0)"></image><image xlink:href="B9F2C8EE9A407D3F6BFAE9F7174B65E7.png" width="125.00" height="85.00" transform="matrix(1.00, 0.00, -0.00, -1.00, 442.0, 587.0)"></image></g></svg>