<?xml version="1.0" encoding="UTF-8" standalone="no"?><svg xmlns="http://www.w3.org/2000/svg" xmlns:xlink="http://www.w3.org/1999/xlink" clip-rule="evenodd" stroke-miterlimit="4.00" viewBox="0 0 1024 768"><desc>SVG generated by Keynote</desc><defs></defs><g transform="matrix(1.00, 0.00, -0.00, -1.00, 0.0, 768.0)"><path d="M 0.0 768.0 L 1024.0 768.0 L 1024.0 0.0 L 0.0 0.0 Z M 0.0 768.0 " fill="#212121"></path><path d="M 0.0 0.0 L 960.0 0.0 " fill="none" stroke="#A6AAA9" stroke-width="2.00" transform="matrix(1.00, 0.00, 0.00, -1.00, 32.0, 689.8)"></path><text xml:space="preserve" font-family="DINCondensed-Bold" font-weight="bold" font-size="48.0" fill="#34A4DA" transform="matrix(1.00, 0.00, -0.00, -1.00, 36.0, 608.0)">W</text><text xml:space="preserve" font-family="DINCondensed-Bold" font-weight="bold" font-size="48.0" fill="#34A4DA" transform="matrix(1.00, 0.00, -0.00, -1.00, 64.5, 608.0)">H</text><text xml:space="preserve" font-family="DINCondensed-Bold" font-weight="bold" font-size="48.0" fill="#34A4DA" transform="matrix(1.00, 0.00, -0.00, -1.00, 84.9, 608.0)">Y</text><text xml:space="preserve" font-family="DINCondensed-Bold" font-weight="bold" font-size="48.0" fill="#34A4DA" transform="matrix(1.00, 0.00, -0.00, -1.00, 103.5, 608.0)"> </text><text xml:space="preserve" font-family="DINCondensed-Bold" font-weight="bold" font-size="48.0" fill="#34A4DA" transform="matrix(1.00, 0.00, -0.00, -1.00, 112.5, 608.0)">P</text><text xml:space="preserve" font-family="DINCondensed-Bold" font-weight="bold" font-size="48.0" fill="#34A4DA" transform="matrix(1.00, 0.00, -0.00, -1.00, 132.0, 608.0)">Y</text><text xml:space="preserve" font-family="DINCondensed-Bold" font-weight="bold" font-size="48.0" fill="#34A4DA" transform="matrix(1.00, 0.00, -0.00, -1.00, 150.6, 608.0)">T</text><text xml:space="preserve" font-family="DINCondensed-Bold" font-weight="bold" font-size="48.0" fill="#34A4DA" transform="matrix(1.00, 0.00, -0.00, -1.00, 166.6, 608.0)">H</text><text xml:space="preserve" font-family="DINCondensed-Bold" font-weight="bold" font-size="48.0" fill="#34A4DA" transform="matrix(1.00, 0.00, -0.00, -1.00, 187.0, 608.0)">O</text><text xml:space="preserve" font-family="DINCondensed-Bold" font-weight="bold" font-size="48.0" fill="#34A4DA" transform="matrix(1.00, 0.00, -0.00, -1.00, 207.5, 608.0)">N</text><text xml:space="preserve" font-family="LucidaGrande" font-size="35.7" fill="#34A4DA" transform="matrix(1.00, 0.00, -0.00, -1.00, 36.0, 511.0)">▸</text><text xml:space="preserve" font-family="AvenirNext-Medium" font-size="34.0" fill="#838686" transform="matrix(1.00, 0.00, -0.00, -1.00, 71.0, 514.0)">A</text><text xml:space="preserve" font-family="AvenirNext-Medium" font-size="34.0" fill="#838686" transform="matrix(1.00, 0.00, -0.00, -1.00, 95.2, 514.0)">s</text><text xml:space="preserve" font-family="AvenirNext-Medium" font-size="34.0" fill="#838686" transform="matrix(1.00, 0.00, -0.00, -1.00, 110.3, 514.0)"> </text><text xml:space="preserve" font-family="AvenirNext-Medium" font-size="34.0" fill="#838686" transform="matrix(1.00, 0.00, -0.00, -1.00, 118.8, 514.0)">a</text><text xml:space="preserve" font-family="AvenirNext-Medium" font-size="34.0" fill="#838686" transform="matrix(1.00, 0.00, -0.00, -1.00, 137.2, 514.0)"> </text><text xml:space="preserve" font-family="AvenirNext-Medium" font-size="34.0" fill="#838686" transform="matrix(1.00, 0.00, -0.00, -1.00, 145.7, 514.0)">r</text><text xml:space="preserve" font-family="AvenirNext-Medium" font-size="34.0" fill="#838686" transform="matrix(1.00, 0.00, -0.00, -1.00, 157.4, 514.0)">e</text><text xml:space="preserve" font-family="AvenirNext-Medium" font-size="34.0" fill="#838686" transform="matrix(1.00, 0.00, -0.00, -1.00, 176.9, 514.0)">f</text><text xml:space="preserve" font-family="AvenirNext-Medium" font-size="34.0" fill="#838686" transform="matrix(1.00, 0.00, -0.00, -1.00, 187.4, 514.0)">r</text><text xml:space="preserve" font-family="AvenirNext-Medium" font-size="34.0" fill="#838686" transform="matrix(1.00, 0.00, -0.00, -1.00, 199.1, 514.0)">e</text><text xml:space="preserve" font-family="AvenirNext-Medium" font-size="34.0" fill="#838686" transform="matrix(1.00, 0.00, -0.00, -1.00, 218.6, 514.0)">s</text><text xml:space="preserve" font-family="AvenirNext-Medium" font-size="34.0" fill="#838686" transform="matrix(1.00, 0.00, -0.00, -1.00, 233.7, 514.0)">h</text><text xml:space="preserve" font-family="AvenirNext-Medium" font-size="34.0" fill="#838686" transform="matrix(1.00, 0.00, -0.00, -1.00, 253.5, 514.0)">e</text><text xml:space="preserve" font-family="AvenirNext-Medium" font-size="34.0" fill="#838686" transform="matrix(1.00, 0.00, -0.00, -1.00, 273.0, 514.0)">r</text><text xml:space="preserve" font-family="AvenirNext-Medium" font-size="34.0" fill="#838686" transform="matrix(1.00, 0.00, -0.00, -1.00, 285.3, 514.0)"> </text><text xml:space="preserve" font-family="LucidaGrande" font-size="35.7" fill="#34A4DA" transform="matrix(1.00, 0.00, -0.00, -1.00, 36.0, 437.0)">▸</text><text xml:space="preserve" font-family="AvenirNext-Medium" font-size="34.0" fill="#838686" transform="matrix(1.00, 0.00, -0.00, -1.00, 71.0, 440.0)">U</text><text xml:space="preserve" font-family="AvenirNext-Medium" font-size="34.0" fill="#838686" transform="matrix(1.00, 0.00, -0.00, -1.00, 95.2, 440.0)">s</text><text xml:space="preserve" font-family="AvenirNext-Medium" font-size="34.0" fill="#838686" transform="matrix(1.00, 0.00, -0.00, -1.00, 110.3, 440.0)">e</text><text xml:space="preserve" font-family="AvenirNext-Medium" font-size="34.0" fill="#838686" transform="matrix(1.00, 0.00, -0.00, -1.00, 129.8, 440.0)">f</text><text xml:space="preserve" font-family="AvenirNext-Medium" font-size="34.0" fill="#838686" transform="matrix(1.00, 0.00, -0.00, -1.00, 140.3, 440.0)">u</text><text xml:space="preserve" font-family="AvenirNext-Medium" font-size="34.0" fill="#838686" transform="matrix(1.00, 0.00, -0.00, -1.00, 160.1, 440.0)">l</text><text xml:space="preserve" font-family="AvenirNext-Medium" font-size="34.0" fill="#838686" transform="matrix(1.00, 0.00, -0.00, -1.00, 169.0, 440.0)"> </text><text xml:space="preserve" font-family="AvenirNext-Medium" font-size="34.0" fill="#838686" transform="matrix(1.00, 0.00, -0.00, -1.00, 177.5, 440.0)">i</text><text xml:space="preserve" font-family="AvenirNext-Medium" font-size="34.0" fill="#838686" transform="matrix(1.00, 0.00, -0.00, -1.00, 186.3, 440.0)">n</text><text xml:space="preserve" font-family="AvenirNext-Medium" font-size="34.0" fill="#838686" transform="matrix(1.00, 0.00, -0.00, -1.00, 206.0, 440.0)"> </text><text xml:space="preserve" font-family="AvenirNext-Medium" font-size="34.0" fill="#838686" transform="matrix(1.00, 0.00, -0.00, -1.00, 214.5, 440.0)">s</text><text xml:space="preserve" font-family="AvenirNext-Medium" font-size="34.0" fill="#838686" transform="matrix(1.00, 0.00, -0.00, -1.00, 229.6, 440.0)">e</text><text xml:space="preserve" font-family="AvenirNext-Medium" font-size="34.0" fill="#838686" transform="matrix(1.00, 0.00, -0.00, -1.00, 249.1, 440.0)">v</text><text xml:space="preserve" font-family="AvenirNext-Medium" font-size="34.0" fill="#838686" transform="matrix(1.00, 0.00, -0.00, -1.00, 266.3, 440.0)">e</text><text xml:space="preserve" font-family="AvenirNext-Medium" font-size="34.0" fill="#838686" transform="matrix(1.00, 0.00, -0.00, -1.00, 285.7, 440.0)">r</text><text xml:space="preserve" font-family="AvenirNext-Medium" font-size="34.0" fill="#838686" transform="matrix(1.00, 0.00, -0.00, -1.00, 297.6, 440.0)">a</text><text xml:space="preserve" font-family="AvenirNext-Medium" font-size="34.0" fill="#838686" transform="matrix(1.00, 0.00, -0.00, -1.00, 316.0, 440.0)">l</text><text xml:space="preserve" font-family="AvenirNext-Medium" font-size="34.0" fill="#838686" transform="matrix(1.00, 0.00, -0.00, -1.00, 324.9, 440.0)"> </text><text xml:space="preserve" font-family="AvenirNext-Medium" font-size="34.0" fill="#838686" transform="matrix(1.00, 0.00, -0.00, -1.00, 333.4, 440.0)">d</text><text xml:space="preserve" font-family="AvenirNext-Medium" font-size="34.0" fill="#838686" transform="matrix(1.00, 0.00, -0.00, -1.00, 355.0, 440.0)">i</text><text xml:space="preserve" font-family="AvenirNext-Medium" font-size="34.0" fill="#838686" transform="matrix(1.00, 0.00, -0.00, -1.00, 363.8, 440.0)">f</text><text xml:space="preserve" font-family="AvenirNext-Medium" font-size="34.0" fill="#838686" transform="matrix(1.00, 0.00, -0.00, -1.00, 373.6, 440.0)">f</text><text xml:space="preserve" font-family="AvenirNext-Medium" font-size="34.0" fill="#838686" transform="matrix(1.00, 0.00, -0.00, -1.00, 384.1, 440.0)">e</text><text xml:space="preserve" font-family="AvenirNext-Medium" font-size="34.0" fill="#838686" transform="matrix(1.00, 0.00, -0.00, -1.00, 403.6, 440.0)">r</text><text xml:space="preserve" font-family="AvenirNext-Medium" font-size="34.0" fill="#838686" transform="matrix(1.00, 0.00, -0.00, -1.00, 415.3, 440.0)">e</text><text xml:space="preserve" font-family="AvenirNext-Medium" font-size="34.0" fill="#838686" transform="matrix(1.00, 0.00, -0.00, -1.00, 434.8, 440.0)">n</text><text xml:space="preserve" font-family="AvenirNext-Medium" font-size="34.0" fill="#838686" transform="matrix(1.00, 0.00, -0.00, -1.00, 454.6, 440.0)">t</text><text xml:space="preserve" font-family="AvenirNext-Medium" font-size="34.0" fill="#838686" transform="matrix(1.00, 0.00, -0.00, -1.00, 465.8, 440.0)"> </text><text xml:space="preserve" font-family="AvenirNext-Medium" font-size="34.0" fill="#838686" transform="matrix(1.00, 0.00, -0.00, -1.00, 474.3, 440.0)">s</text><text xml:space="preserve" font-family="AvenirNext-Medium" font-size="34.0" fill="#838686" transform="matrix(1.00, 0.00, -0.00, -1.00, 489.4, 440.0)">i</text><text xml:space="preserve" font-family="AvenirNext-Medium" font-size="34.0" fill="#838686" transform="matrix(1.00, 0.00, -0.00, -1.00, 498.2, 440.0)">t</text><text xml:space="preserve" font-family="AvenirNext-Medium" font-size="34.0" fill="#838686" transform="matrix(1.00, 0.00, -0.00, -1.00, 509.4, 440.0)">u</text><text xml:space="preserve" font-family="AvenirNext-Medium" font-size="34.0" fill="#838686" transform="matrix(1.00, 0.00, -0.00, -1.00, 529.1, 440.0)">a</text><text xml:space="preserve" font-family="AvenirNext-Medium" font-size="34.0" fill="#838686" transform="matrix(1.00, 0.00, -0.00, -1.00, 547.2, 440.0)">t</text><text xml:space="preserve" font-family="AvenirNext-Medium" font-size="34.0" fill="#838686" transform="matrix(1.00, 0.00, -0.00, -1.00, 558.4, 440.0)">i</text><text xml:space="preserve" font-family="AvenirNext-Medium" font-size="34.0" fill="#838686" transform="matrix(1.00, 0.00, -0.00, -1.00, 567.2, 440.0)">o</text><text xml:space="preserve" font-family="AvenirNext-Medium" font-size="34.0" fill="#838686" transform="matrix(1.00, 0.00, -0.00, -1.00, 588.0, 440.0)">n</text><text xml:space="preserve" font-family="AvenirNext-Medium" font-size="34.0" fill="#838686" transform="matrix(1.00, 0.00, -0.00, -1.00, 607.8, 440.0)">s</text><text xml:space="preserve" font-family="AvenirNext-Medium" font-size="34.0" fill="#838686" transform="matrix(1.00, 0.00, -0.00, -1.00, 622.9, 440.0)"> </text><text xml:space="preserve" font-family="LucidaGrande" font-size="35.7" fill="#34A4DA" transform="matrix(1.00, 0.00, -0.00, -1.00, 36.0, 363.0)">▸</text><text xml:space="preserve" font-family="AvenirNext-Medium" font-size="34.0" fill="#838686" transform="matrix(1.00, 0.00, -0.00, -1.00, 71.0, 366.0)">C</text><text xml:space="preserve" font-family="AvenirNext-Medium" font-size="34.0" fill="#838686" transform="matrix(1.00, 0.00, -0.00, -1.00, 94.7, 366.0)">o</text><text xml:space="preserve" font-family="AvenirNext-Medium" font-size="34.0" fill="#838686" transform="matrix(1.00, 0.00, -0.00, -1.00, 115.4, 366.0)">m</text><text xml:space="preserve" font-family="AvenirNext-Medium" font-size="34.0" fill="#838686" transform="matrix(1.00, 0.00, -0.00, -1.00, 145.6, 366.0)">p</text><text xml:space="preserve" font-family="AvenirNext-Medium" font-size="34.0" fill="#838686" transform="matrix(1.00, 0.00, -0.00, -1.00, 167.1, 366.0)">a</text><text xml:space="preserve" font-family="AvenirNext-Medium" font-size="34.0" fill="#838686" transform="matrix(1.00, 0.00, -0.00, -1.00, 185.5, 366.0)">r</text><text xml:space="preserve" font-family="AvenirNext-Medium" font-size="34.0" fill="#838686" transform="matrix(1.00, 0.00, -0.00, -1.00, 197.9, 366.0)">i</text><text xml:space="preserve" font-family="AvenirNext-Medium" font-size="34.0" fill="#838686" transform="matrix(1.00, 0.00, -0.00, -1.00, 206.7, 366.0)">n</text><text xml:space="preserve" font-family="AvenirNext-Medium" font-size="34.0" fill="#838686" transform="matrix(1.00, 0.00, -0.00, -1.00, 226.4, 366.0)">g</text><text xml:space="preserve" font-family="AvenirNext-Medium" font-size="34.0" fill="#838686" transform="matrix(1.00, 0.00, -0.00, -1.00, 247.9, 366.0)"> </text><text xml:space="preserve" font-family="AvenirNext-Medium" font-size="34.0" fill="#838686" transform="matrix(1.00, 0.00, -0.00, -1.00, 256.4, 366.0)">R</text><text xml:space="preserve" font-family="AvenirNext-Medium" font-size="34.0" fill="#838686" transform="matrix(1.00, 0.00, -0.00, -1.00, 277.3, 366.0)"> </text><text xml:space="preserve" font-family="AvenirNext-Medium" font-size="34.0" fill="#838686" transform="matrix(1.00, 0.00, -0.00, -1.00, 285.8, 366.0)">a</text><text xml:space="preserve" font-family="AvenirNext-Medium" font-size="34.0" fill="#838686" transform="matrix(1.00, 0.00, -0.00, -1.00, 304.2, 366.0)">n</text><text xml:space="preserve" font-family="AvenirNext-Medium" font-size="34.0" fill="#838686" transform="matrix(1.00, 0.00, -0.00, -1.00, 324.0, 366.0)">d</text><text xml:space="preserve" font-family="AvenirNext-Medium" font-size="34.0" fill="#838686" transform="matrix(1.00, 0.00, -0.00, -1.00, 345.6, 366.0)"> </text><text xml:space="preserve" font-family="AvenirNext-Medium" font-size="34.0" fill="#838686" transform="matrix(1.00, 0.00, -0.00, -1.00, 354.1, 366.0)">P</text><text xml:space="preserve" font-family="AvenirNext-Medium" font-size="34.0" fill="#838686" transform="matrix(1.00, 0.00, -0.00, -1.00, 372.9, 366.0)">y</text><text xml:space="preserve" font-family="AvenirNext-Medium" font-size="34.0" fill="#838686" transform="matrix(1.00, 0.00, -0.00, -1.00, 390.1, 366.0)">t</text><text xml:space="preserve" font-family="AvenirNext-Medium" font-size="34.0" fill="#838686" transform="matrix(1.00, 0.00, -0.00, -1.00, 401.2, 366.0)">h</text><text xml:space="preserve" font-family="AvenirNext-Medium" font-size="34.0" fill="#838686" transform="matrix(1.00, 0.00, -0.00, -1.00, 421.1, 366.0)">o</text><text xml:space="preserve" font-family="AvenirNext-Medium" font-size="34.0" fill="#838686" transform="matrix(1.00, 0.00, -0.00, -1.00, 441.8, 366.0)">n</text><text xml:space="preserve" font-family="AvenirNext-Medium" font-size="34.0" fill="#838686" transform="matrix(1.00, 0.00, -0.00, -1.00, 461.6, 366.0)">’</text><text xml:space="preserve" font-family="AvenirNext-Medium" font-size="34.0" fill="#838686" transform="matrix(1.00, 0.00, -0.00, -1.00, 468.4, 366.0)">s</text><text xml:space="preserve" font-family="AvenirNext-Medium" font-size="34.0" fill="#838686" transform="matrix(1.00, 0.00, -0.00, -1.00, 483.5, 366.0)"> </text><text xml:space="preserve" font-family="AvenirNext-Medium" font-size="34.0" fill="#838686" transform="matrix(1.00, 0.00, -0.00, -1.00, 492.0, 366.0)">a</text><text xml:space="preserve" font-family="AvenirNext-Medium" font-size="34.0" fill="#838686" transform="matrix(1.00, 0.00, -0.00, -1.00, 510.4, 366.0)">b</text><text xml:space="preserve" font-family="AvenirNext-Medium" font-size="34.0" fill="#838686" transform="matrix(1.00, 0.00, -0.00, -1.00, 532.0, 366.0)">i</text><text xml:space="preserve" font-family="AvenirNext-Medium" font-size="34.0" fill="#838686" transform="matrix(1.00, 0.00, -0.00, -1.00, 540.8, 366.0)">l</text><text xml:space="preserve" font-family="AvenirNext-Medium" font-size="34.0" fill="#838686" transform="matrix(1.00, 0.00, -0.00, -1.00, 549.7, 366.0)">i</text><text xml:space="preserve" font-family="AvenirNext-Medium" font-size="34.0" fill="#838686" transform="matrix(1.00, 0.00, -0.00, -1.00, 558.5, 366.0)">t</text><text xml:space="preserve" font-family="AvenirNext-Medium" font-size="34.0" fill="#838686" transform="matrix(1.00, 0.00, -0.00, -1.00, 569.6, 366.0)">y</text><text xml:space="preserve" font-family="AvenirNext-Medium" font-size="34.0" fill="#838686" transform="matrix(1.00, 0.00, -0.00, -1.00, 586.8, 366.0)"> </text><text xml:space="preserve" font-family="AvenirNext-Medium" font-size="34.0" fill="#838686" transform="matrix(1.00, 0.00, -0.00, -1.00, 595.3, 366.0)">t</text><text xml:space="preserve" font-family="AvenirNext-Medium" font-size="34.0" fill="#838686" transform="matrix(1.00, 0.00, -0.00, -1.00, 606.5, 366.0)">o</text><text xml:space="preserve" font-family="AvenirNext-Medium" font-size="34.0" fill="#838686" transform="matrix(1.00, 0.00, -0.00, -1.00, 627.2, 366.0)"> </text><text xml:space="preserve" font-family="AvenirNext-Medium" font-size="34.0" fill="#838686" transform="matrix(1.00, 0.00, -0.00, -1.00, 635.7, 366.0)">w</text><text xml:space="preserve" font-family="AvenirNext-Medium" font-size="34.0" fill="#838686" transform="matrix(1.00, 0.00, -0.00, -1.00, 662.0, 366.0)">o</text><text xml:space="preserve" font-family="AvenirNext-Medium" font-size="34.0" fill="#838686" transform="matrix(1.00, 0.00, -0.00, -1.00, 682.7, 366.0)">r</text><text xml:space="preserve" font-family="AvenirNext-Medium" font-size="34.0" fill="#838686" transform="matrix(1.00, 0.00, -0.00, -1.00, 695.0, 366.0)">k</text><text xml:space="preserve" font-family="AvenirNext-Medium" font-size="34.0" fill="#838686" transform="matrix(1.00, 0.00, -0.00, -1.00, 713.0, 366.0)"> </text><text xml:space="preserve" font-family="AvenirNext-Medium" font-size="34.0" fill="#838686" transform="matrix(1.00, 0.00, -0.00, -1.00, 721.5, 366.0)">w</text><text xml:space="preserve" font-family="AvenirNext-Medium" font-size="34.0" fill="#838686" transform="matrix(1.00, 0.00, -0.00, -1.00, 747.7, 366.0)">i</text><text xml:space="preserve" font-family="AvenirNext-Medium" font-size="34.0" fill="#838686" transform="matrix(1.00, 0.00, -0.00, -1.00, 756.5, 366.0)">t</text><text xml:space="preserve" font-family="AvenirNext-Medium" font-size="34.0" fill="#838686" transform="matrix(1.00, 0.00, -0.00, -1.00, 767.7, 366.0)">h</text><text xml:space="preserve" font-family="AvenirNext-Medium" font-size="34.0" fill="#838686" transform="matrix(1.00, 0.00, -0.00, -1.00, 787.6, 366.0)"> </text><text xml:space="preserve" font-family="AvenirNext-Medium" font-size="34.0" fill="#838686" transform="matrix(1.00, 0.00, -0.00, -1.00, 796.1, 366.0)">d</text><text xml:space="preserve" font-family="AvenirNext-Medium" font-size="34.0" fill="#838686" transform="matrix(1.00, 0.00, -0.00, -1.00, 817.7, 366.0)">a</text><text xml:space="preserve" font-family="AvenirNext-Medium" font-size="34.0" fill="#838686" transform="matrix(1.00, 0.00, -0.00, -1.00, 835.8, 366.0)">t</text><text xml:space="preserve" font-family="AvenirNext-Medium" font-size="34.0" fill="#838686" transform="matrix(1.00, 0.00, -0.00, -1.00, 846.9, 366.0)">a</text></g></svg>